<?xml version="1.0" encoding="UTF-8" standalone="no"?>
<!-- Created with Inkscape (http://www.inkscape.org/) -->

<svg
   xmlns:dc="http://purl.org/dc/elements/1.1/"
   xmlns:cc="http://creativecommons.org/ns#"
   xmlns:rdf="http://www.w3.org/1999/02/22-rdf-syntax-ns#"
   xmlns:svg="http://www.w3.org/2000/svg"
   xmlns="http://www.w3.org/2000/svg"
   xmlns:sodipodi="http://sodipodi.sourceforge.net/DTD/sodipodi-0.dtd"
   xmlns:inkscape="http://www.inkscape.org/namespaces/inkscape"
   width="210mm"
   height="297mm"
   viewBox="0 0 210 297"
   version="1.1"
   id="svg8"
   inkscape:version="0.92.2 2405546, 2018-03-11"
   sodipodi:docname="logo.svg">
  <defs
     id="defs2">
    <clipPath
       clipPathUnits="userSpaceOnUse"
       id="clipPath827">
      <path
         style="fill:none;stroke:#000000;stroke-width:0.26458332px;stroke-linecap:butt;stroke-linejoin:miter;stroke-opacity:1"
         d="m -322.41368,293.97619 20.4107,57.45239 34.01787,18.89879 34.7738,-0.37796 30.61607,-18.14287 21.16667,-57.07439 2.26786,-51.0268 -74.08334,-34.39583 -85.8006,48.38095 z"
         id="path829"
         inkscape:connector-curvature="0" />
    </clipPath>
    <clipPath
       clipPathUnits="userSpaceOnUse"
       id="clipPath835">
      <path
         style="fill:none;stroke:#000000;stroke-width:0.31074002px;stroke-linecap:butt;stroke-linejoin:miter;stroke-opacity:1"
         d="m -363.89164,264.14023 9.76608,40.39619 h -15.53699 l -15.53702,-17.75653 6.21482,-21.75182 z"
         id="path837"
         inkscape:connector-curvature="0" />
    </clipPath>
    <clipPath
       clipPathUnits="userSpaceOnUse"
       id="clipPath835-0">
      <path
         style="fill:none;stroke:#000000;stroke-width:0.31074002px;stroke-linecap:butt;stroke-linejoin:miter;stroke-opacity:1"
         d="m -363.89164,264.14023 9.76608,40.39619 h -15.53699 l -15.53702,-17.75653 6.21482,-21.75182 z"
         id="path837-3"
         inkscape:connector-curvature="0" />
    </clipPath>
    <clipPath
       clipPathUnits="userSpaceOnUse"
       id="clipPath905">
      <g
         id="g923">
        <path
           inkscape:connector-curvature="0"
           id="path907"
           d="m -139.27968,416.13536 6.21482,21.75182 -9.92434,11.72372 3.47451,3.74176 6.68174,1.06908 -4.00905,-6.41446 12.02713,-2.40543 -3.4745,-2.40543 0.80181,-5.61266 4.54358,3.47451"
           style="fill:none;stroke:#000000;stroke-width:0.26458332px;stroke-linecap:butt;stroke-linejoin:miter;stroke-opacity:1" />
        <g
           id="g921">
          <path
             style="fill:none;stroke:#000000;stroke-width:0.26458332px;stroke-linecap:butt;stroke-linejoin:miter;stroke-opacity:1"
             d="m -122.94398,441.05827 9.35443,-4.2763 -4.81085,-1.60362 -5.07812,-9.6217 7.48355,-0.53454 3.4745,5.87992 v -15.23437 l -8.28535,-3.47451 10.15624,-6.68173 -1.60362,-15.50162 -5.34539,4.81084 -14.69982,-11.22532 5.87993,-1.06908 6.41446,5.07813 -0.8018,-8.81989 -10.42352,-6.41448 11.75986,-16.03616 -10.42351,4.81084 -8.01808,0.26726 3.20723,-3.47448 -13.09621,3.74176 -5.61266,-5.61266 6.41447,-0.80182 -13.63074,-11.49257 -15.23437,3.47451 5.07812,-17.37254 -8.01808,7.48355 -12.82894,2.93997 -12.02713,5.07812 -4.54358,-22.45064 -5.87993,11.22532 -9.35443,6.1472 1.60362,-8.28535 -3.20724,-1.60361 -6.94901,9.35442 1.87089,12.2944 -16.57071,-8.55263 -5.61266,-13.63075 -2.93997,12.29442 6.41447,10.42349 -6.94901,8.0181 -21.9161,-4.27631 3.20723,11.22532 4.54358,1.60362 -20.0452,5.07812 -5.07812,8.55263 16.57069,-2.93997 0.26729,6.41445 1.87089,8.28537 3.45787,15.83947"
             id="path909"
             inkscape:connector-curvature="0" />
          <path
             style="fill:none;stroke:#000000;stroke-width:0.26458332px;stroke-linecap:butt;stroke-linejoin:miter;stroke-opacity:1"
             d="m -294.53101,412.46043 -10.42353,-14.16528 -7.75081,14.16528 -1.06907,-10.42352"
             id="path911"
             inkscape:connector-curvature="0" />
          <path
             style="fill:none;stroke:#000000;stroke-width:0.26458332px;stroke-linecap:butt;stroke-linejoin:miter;stroke-opacity:1"
             d="m -313.77442,402.03691 -17.6398,10.69078 11.75988,-4.00905 -11.4926,8.0181 -2.93997,-0.8018 4.27633,5.61266 12.02711,-1.33636 -3.74176,15.76891 2.67268,-0.8018 4.00905,-5.87994 12.02714,1.60362 3.60794,-14.81299 5.74648,-0.1541 -1.06907,-3.47451"
             id="path913"
             inkscape:connector-curvature="0" />
          <path
             style="fill:none;stroke:#000000;stroke-width:0.26458332px;stroke-linecap:butt;stroke-linejoin:miter;stroke-opacity:1"
             d="m -322.41368,391.11607 16.25296,-14.36309 2.26787,-5.29166 -18.89881,15.11903"
             id="path915"
             inkscape:connector-curvature="0" />
          <path
             style="fill:none;stroke:#000000;stroke-width:0.26458332px;stroke-linecap:butt;stroke-linejoin:miter;stroke-opacity:1"
             d="m -322.79166,386.58035 -22.30059,-1.51191 22.67857,6.04763 -20.41072,13.41816 4.72471,7.9375 6.68547,0.25596"
             id="path917"
             inkscape:connector-curvature="0" />
          <path
             style="fill:none;stroke:#000000;stroke-width:0.26458332px;stroke-linecap:butt;stroke-linejoin:miter;stroke-opacity:1"
             d="m -317.51619,338.69405 16.5707,11.22531 -2.67269,-14.9671 z"
             id="path919"
             inkscape:connector-curvature="0" />
        </g>
      </g>
    </clipPath>
    <clipPath
       clipPathUnits="userSpaceOnUse"
       id="clipPath1030">
      <path
         style="fill:none;stroke:#000000;stroke-width:0.26458332px;stroke-linecap:butt;stroke-linejoin:miter;stroke-opacity:1"
         d="m -293.46194,415.93495 2.35196,5.6661 8.6061,1.12252 -1.61144,-7.52236 v 0 0 0 l -1.3701,-6.54704 4.10406,-0.5235 -2.24507,-7.48356 5.39885,-14.3791 8.44571,6.1472 1.8709,-9.7286 8.60608,-11.97366 3.36759,5.98683 2.24507,-5.61266 9.72861,5.98683 1.12253,-11.22531 12.72203,-13.79112 -4.86431,13.79112 5.23849,-1.12255 3.74177,11.59952 5.61266,-11.59952 2.99342,3.36761 1.12253,-13.09621 4.49013,-2.61924 5.98684,7.85773 -1.49671,11.22531 9.72861,-7.48355 5.23848,6.73521 -4.49013,10.10277 11.97368,-12.34784 5.61266,5.98683 -7.10937,10.85115 15.71545,-7.10939 9.35443,14.96711 -4.86431,11.5995 -3.36759,9.35442 12.34785,-10.85115 -2.12468,9.35657 6.08541,-3.70417 -1.17904,6.32878 v 0 l 3.95717,-2.88919 -1.85209,8.86354 3.83646,-6.08542 11.10817,-17.10859 -49.39141,-50.51393 -16.94489,-2.13815 -45.16855,7.21627 -29.66693,27.2615 z"
         id="path1032"
         inkscape:connector-curvature="0" />
    </clipPath>
    <clipPath
       clipPathUnits="userSpaceOnUse"
       id="clipPath1069">
      <path
         style="fill:none;stroke:#000000;stroke-width:0.26458332px;stroke-linecap:butt;stroke-linejoin:miter;stroke-opacity:1"
         d="m -293.46194,415.93495 1.36194,-19.98078 13.60514,-16.10061 z"
         id="path1071"
         inkscape:connector-curvature="0" />
    </clipPath>
    <clipPath
       clipPathUnits="userSpaceOnUse"
       id="clipPath1103">
      <path
         style="fill:none;stroke:#000000;stroke-width:0.26458332px;stroke-linecap:butt;stroke-linejoin:miter;stroke-opacity:1"
         d="m -134.70384,357.93746 -12.2944,-2.67271 10.79769,-5.87992 h 11.22532 l -15.34127,-15.71545 8.60608,-13.47039 -20.57975,5.61266 -8.23191,5.61266 -4.49012,-8.98025 -17.96052,3.74176 -13.47038,-5.61266 -2.24506,-21.32809 -23.199,15.71543 -19.08304,-20.95391 -1.87089,17.21215 h -5.23848 l 0.74835,-7.85773 -15.34127,9.72862 2.61924,18.33468 -20.57976,-19.8314 4.11596,12.72204 9.35443,13.84456 -19.45722,7.10936 -8.23191,-5.23849 5.23849,9.35445 -5.92632,1.32559 2.91041,2.38125 -6.08541,6.87917 24.22877,7.58833 50.38373,-19.75917 z"
         id="path1105"
         inkscape:connector-curvature="0" />
    </clipPath>
    <clipPath
       clipPathUnits="userSpaceOnUse"
       id="clipPath1304">
      <g
         id="g1314">
        <g
           id="g1310">
          <path
             style="fill:none;stroke:#000000;stroke-width:0.26458332px;stroke-linecap:butt;stroke-linejoin:miter;stroke-opacity:1"
             d="m -342.8244,404.53423 -12.7756,-15.9884 10.50775,-3.47739 -10.50775,-8.69344 8.46667,-10.05417 19.05,-2.11666 -18.52083,-11.64167 -7.9375,-12.17083 13.22916,4.23333 15.40405,-1.60118 -13.09622,-12.34787 15.15467,-2.98428 14.2875,-5.29167 -17.99166,-4.7625 -6.35,4.23333 5.29166,-6.87916 15.34584,-3.175 7.40833,1.05833 -1.5875,-5.82083 6.87917,-22.75417 6.35,15.34583 1.05833,-8.99583 15.34583,-20.10833 1.5875,10.05416 14.2875,8.46667 5.29167,6.87917 1.05833,-13.22917 17.99167,-16.40417 1.5875,17.99167 11.64167,-11.1125 12.7,-6.35 -6.87917,10.05417 h 7.9375 l 23.28333,-6.35"
             id="path1306"
             inkscape:connector-curvature="0" />
          <path
             style="fill:none;stroke:#000000;stroke-width:0.26458332px;stroke-linecap:butt;stroke-linejoin:miter;stroke-opacity:1"
             d="m -187.325,270.54167 -11.64166,15.875 21.69583,-2.64584 6.87917,5.29167 25.92916,1.5875 -14.81666,10.58333 31.22083,-1.05833 6.87916,-4.7625 -10.53125,24.78648 11.58959,2.73019 -6.87917,12.7 15.34583,10.05416 9.525,-5.29166 -6.35,17.99166"
             id="path1308"
             inkscape:connector-curvature="0" />
        </g>
        <path
           inkscape:connector-curvature="0"
           id="path1312"
           d="m -342.8244,404.53423 11.41018,8.19346 17.6398,-10.69078 20.31248,13.89803 23.51971,-46.77216 48.05507,-54.20228 -14.12117,-30.6605"
           style="fill:none;stroke:#000000;stroke-width:0.26458332px;stroke-linecap:butt;stroke-linejoin:miter;stroke-opacity:1" />
      </g>
    </clipPath>
    <clipPath
       clipPathUnits="userSpaceOnUse"
       id="clipPath1326">
      <g
         id="g1340">
        <g
           id="g1336">
          <g
             id="g1332">
            <path
               inkscape:connector-curvature="0"
               id="path1328"
               d="m -342.8244,404.53423 -12.7756,-15.9884 10.50775,-3.47739 -10.50775,-8.69344 8.46667,-10.05417 19.05,-2.11666 -18.52083,-11.64167 -7.9375,-12.17083 13.22916,4.23333 15.40405,-1.60118 -13.09622,-12.34787 15.15467,-2.98428 14.2875,-5.29167 -17.99166,-4.7625 -6.35,4.23333 5.29166,-6.87916 15.34584,-3.175 7.40833,1.05833 -1.5875,-5.82083 6.87917,-22.75417 6.35,15.34583 1.05833,-8.99583 15.34583,-20.10833 1.5875,10.05416 14.2875,8.46667 5.29167,6.87917 1.05833,-13.22917 17.99167,-16.40417 1.5875,17.99167 11.64167,-11.1125 12.7,-6.35 -6.87917,10.05417 h 7.9375 l 23.28333,-6.35"
               style="fill:none;stroke:#000000;stroke-width:0.26458332px;stroke-linecap:butt;stroke-linejoin:miter;stroke-opacity:1" />
            <path
               inkscape:connector-curvature="0"
               id="path1330"
               d="m -187.325,270.54167 -11.64166,15.875 21.69583,-2.64584 6.87917,5.29167 25.92916,1.5875 -14.81666,10.58333 31.22083,-1.05833 6.87916,-4.7625 -10.53125,24.78648 11.58959,2.73019 -6.87917,12.7 15.34583,10.05416 9.525,-5.29166 -6.35,17.99166"
               style="fill:none;stroke:#000000;stroke-width:0.26458332px;stroke-linecap:butt;stroke-linejoin:miter;stroke-opacity:1" />
          </g>
          <path
             style="fill:none;stroke:#000000;stroke-width:0.26458332px;stroke-linecap:butt;stroke-linejoin:miter;stroke-opacity:1"
             d="m -342.8244,404.53423 11.41018,8.19346 17.6398,-10.69078 20.31248,13.89803 23.51971,-46.77216 48.05507,-54.20228 -14.12117,-30.6605"
             id="path1334"
             inkscape:connector-curvature="0" />
        </g>
        <path
           inkscape:connector-curvature="0"
           id="path1338"
           d="m -102.12917,340.39167 -9.525,28.575 11.64167,1.05833 8.466668,12.7 -15.874998,-5.29167 1.90282,8.43378 7.29646,1.49672 -12.42803,18.14759 L -221.88716,314.9605 -236.00833,284.3"
           style="fill:none;stroke:#000000;stroke-width:0.26458332px;stroke-linecap:butt;stroke-linejoin:miter;stroke-opacity:1" />
      </g>
    </clipPath>
    <clipPath
       clipPathUnits="userSpaceOnUse"
       id="clipPath1349">
      <path
         style="fill:none;stroke:#000000;stroke-width:0.26458332px;stroke-linecap:butt;stroke-linejoin:miter;stroke-opacity:1"
         d="m -212.725,294.88334 69.78926,28.30906 2.24506,-0.37417 -46.63432,-52.27656 -26.89152,23.09074 1.87088,2.05796"
         id="path1351"
         inkscape:connector-curvature="0" />
    </clipPath>
    <clipPath
       clipPathUnits="userSpaceOnUse"
       id="clipPath1357">
      <path
         style="fill:none;stroke:#000000;stroke-width:0.26458332px;stroke-linecap:butt;stroke-linejoin:miter;stroke-opacity:1"
         d="m -233.3625,301.23334 8.99584,-17.4625 6.87916,12.7 23.28334,-15.34584 3.70416,18.52084 18.52084,-1.05834 -8.99584,12.7 h 26.45834 l 14.2875,-6.35 v 5.29167 l 12.69999,-8.99583 6.35,-4.7625 -10.58333,24.87083 11.1125,2.64583 -3.175,7.40834 21.16667,8.46666 -38.1,-4.23333 L -228.6,323.9875 Z"
         id="path1359"
         inkscape:connector-curvature="0" />
    </clipPath>
    <clipPath
       clipPathUnits="userSpaceOnUse"
       id="clipPath1379">
      <path
         style="fill:none;stroke:#000000;stroke-width:0.26458332px;stroke-linecap:butt;stroke-linejoin:miter;stroke-opacity:1"
         d="m -110.06667,405.47917 15.345839,-8.99583 -6.349999,-1.05834 -7.9375,-13.22916 16.93333,2.64583 -6.35,-16.93333 -11.64167,-5.82084 10.583339,-2.64583 12.170831,-22.75417 -18.52083,3.70417 -41.80417,-10.05417 -11.1125,35.45417 z"
         id="path1381"
         inkscape:connector-curvature="0" />
    </clipPath>
    <clipPath
       clipPathUnits="userSpaceOnUse"
       id="clipPath1417">
      <path
         style="fill:none;stroke:#000000;stroke-width:0.26458332px;stroke-linecap:butt;stroke-linejoin:miter;stroke-opacity:1"
         d="m -215.37083,328.22084 -2.11667,19.05 6.35,-8.99584 z"
         id="path1419"
         inkscape:connector-curvature="0" />
    </clipPath>
    <clipPath
       clipPathUnits="userSpaceOnUse"
       id="clipPath1423">
      <path
         style="fill:none;stroke:#000000;stroke-width:0.26458332px;stroke-linecap:butt;stroke-linejoin:miter;stroke-opacity:1"
         d="m -159.80833,327.69167 4.23333,-1.5875 8.46667,7.9375 -4.7625,2.11667 -11.64167,-4.7625 z"
         id="path1425"
         inkscape:connector-curvature="0" />
    </clipPath>
    <clipPath
       clipPathUnits="userSpaceOnUse"
       id="clipPath1429">
      <path
         style="fill:none;stroke:#000000;stroke-width:0.26458332px;stroke-linecap:butt;stroke-linejoin:miter;stroke-opacity:1"
         d="m -151.16764,363.22939 -0.37418,4.86431 7.10937,12.34784 1.87089,-0.37417 0.37417,-10.47697 -7.10937,-3.36759 z"
         id="path1431"
         inkscape:connector-curvature="0" />
    </clipPath>
    <clipPath
       clipPathUnits="userSpaceOnUse"
       id="clipPath1452">
      <path
         style="fill:none;stroke:#000000;stroke-width:0.26458332px;stroke-linecap:butt;stroke-linejoin:miter;stroke-opacity:1"
         d="m -220.13333,493.32084 21.16667,-1.05834 29.46564,-17.27403 7.38869,-19.33729 13.51045,-0.007 15.53702,-17.75653 -6.21482,-21.75182 -8.801,-0.89532 0.28063,-53.56082 -72.99474,-8.7199 z"
         id="path1454"
         inkscape:connector-curvature="0" />
    </clipPath>
    <clipPath
       clipPathUnits="userSpaceOnUse"
       id="clipPath1470">
      <path
         style="fill:none;stroke:#000000;stroke-width:0.26458332px;stroke-linecap:butt;stroke-linejoin:miter;stroke-opacity:1"
         d="m -173.99246,358.73925 25.81824,27.12787 -0.18709,-11.5995 -3.18051,-6.17392 -5.09151,-9.63474 z"
         id="path1472"
         inkscape:connector-curvature="0" />
    </clipPath>
    <clipPath
       clipPathUnits="userSpaceOnUse"
       id="clipPath1157">
      <path
         style="fill:none;stroke:#000000;stroke-width:0.26458332px;stroke-linecap:butt;stroke-linejoin:miter;stroke-opacity:1"
         d="m -1229.5467,135.35539 112.2532,134.70384 116.7433,-18.70887 68.84867,-71.09369 11.22532,-11.22532 -110.75649,-137.697254 z"
         id="path1159"
         inkscape:connector-curvature="0" />
    </clipPath>
    <clipPath
       clipPathUnits="userSpaceOnUse"
       id="clipPath1217">
      <path
         style="fill:none;stroke:#000000;stroke-width:0.26458332px;stroke-linecap:butt;stroke-linejoin:miter;stroke-opacity:1"
         d="m -1119.5386,268.0948 -124.5322,-151.01146 212.725,-84.666667 68.79166,85.328117 c -7.94004,94.87326 -79.08866,146.04625 -156.98446,150.35001 z"
         id="path1219"
         inkscape:connector-curvature="0"
         sodipodi:nodetypes="ccccc" />
    </clipPath>
  </defs>
  <sodipodi:namedview
     id="base"
     pagecolor="#ffffff"
     bordercolor="#666666"
     borderopacity="1.0"
     inkscape:pageopacity="0.0"
     inkscape:pageshadow="2"
     inkscape:zoom="0.3535534"
     inkscape:cx="-3649.0701"
     inkscape:cy="339.9885"
     inkscape:document-units="mm"
     inkscape:current-layer="layer1"
     showgrid="false"
     inkscape:window-width="1920"
     inkscape:window-height="1048"
     inkscape:window-x="0"
     inkscape:window-y="0"
     inkscape:window-maximized="1"
     inkscape:snap-global="false"
     inkscape:pagecheckerboard="true" />
  <metadata
     id="metadata5">
    <rdf:RDF>
      <cc:Work
         rdf:about="">
        <dc:format>image/svg+xml</dc:format>
        <dc:type
           rdf:resource="http://purl.org/dc/dcmitype/StillImage" />
        <dc:title />
      </cc:Work>
    </rdf:RDF>
  </metadata>
  <g
     inkscape:label="Layer 1"
     inkscape:groupmode="layer"
     id="layer1">
    <g
       id="g1251"
       transform="matrix(1.2846682,0,0,1.2846682,319.30242,-30.668435)"
       inkscape:export-xdpi="96"
       inkscape:export-ydpi="96">
      <g
         id="g1223">
        <circle
           style="opacity:1;fill:#b7dd1c;fill-opacity:1;stroke:#000000;stroke-width:0;stroke-linejoin:round;stroke-miterlimit:4;stroke-dasharray:none;stroke-opacity:1"
           id="path815"
           cx="-1121.6652"
           cy="107.42229"
           r="160.04916" />
        <rect
           style="opacity:0.39200003;fill:#000000;fill-opacity:1;stroke:#000000;stroke-width:0;stroke-linejoin:round;stroke-miterlimit:4;stroke-dasharray:none;stroke-opacity:1"
           id="rect1153"
           width="538.81537"
           height="413.09177"
           x="-1355.2703"
           y="-84.660873"
           clip-path="url(#clipPath1217)" />
      </g>
      <g
         transform="matrix(0.90625,0,0,0.90625,-922.16925,-236.53097)"
         id="g1553">
        <rect
           style="opacity:0.55100002;fill:#3f8869;fill-opacity:1;stroke:#000000;stroke-width:0;stroke-linejoin:round;stroke-miterlimit:4;stroke-dasharray:none;stroke-opacity:1"
           id="rect927-3-5-4-0-5"
           width="277.93338"
           height="199.8107"
           x="-361.57095"
           y="257.91324"
           clip-path="url(#clipPath1304)" />
        <rect
           style="opacity:1;fill:#3f8869;fill-opacity:1;stroke:#000000;stroke-width:0;stroke-linejoin:round;stroke-miterlimit:4;stroke-dasharray:none;stroke-opacity:1"
           id="rect927-3-5-4-0-5-9"
           width="277.93338"
           height="199.8107"
           x="-362.27502"
           y="246.83632"
           clip-path="url(#clipPath1326)" />
        <rect
           style="opacity:1;fill:#211f22;fill-opacity:1;stroke:#000000;stroke-width:0;stroke-linejoin:round;stroke-miterlimit:4;stroke-dasharray:none;stroke-opacity:1"
           id="rect927"
           width="250.50751"
           height="175.86334"
           x="-345.16678"
           y="281.8606"
           clip-path="url(#clipPath905)"
           transform="translate(0,-0.74835468)" />
        <g
           id="g863"
           transform="translate(5.8799307,221.08536)">
          <circle
             transform="translate(27.214286,-98.651786)"
             clip-path="url(#clipPath827)"
             r="70.938194"
             cy="300.77975"
             cx="-251.73212"
             id="path836"
             style="opacity:1;fill:#ffdebd;fill-opacity:1;stroke:#000000;stroke-width:0;stroke-linejoin:round;stroke-miterlimit:4;stroke-dasharray:none;stroke-opacity:1" />
          <rect
             transform="translate(73.896383,-70.772744)"
             clip-path="url(#clipPath835)"
             y="244.83928"
             x="-420.30951"
             height="85.800591"
             width="96.005951"
             id="rect831"
             style="opacity:1;fill:#ffdebd;fill-opacity:1;stroke:#000000;stroke-width:0;stroke-linejoin:round;stroke-miterlimit:4;stroke-dasharray:none;stroke-opacity:1" />
          <rect
             transform="matrix(-1,0,0,1,-524.14436,-70.726418)"
             clip-path="url(#clipPath835-0)"
             y="244.83928"
             x="-420.30951"
             height="85.800591"
             width="96.005951"
             id="rect831-0"
             style="opacity:1;fill:#ffdebd;fill-opacity:1;stroke:#000000;stroke-width:0;stroke-linejoin:round;stroke-miterlimit:4;stroke-dasharray:none;stroke-opacity:1" />
        </g>
        <rect
           style="opacity:0.55100002;fill:#e5c7a9;fill-opacity:1;stroke:#000000;stroke-width:0;stroke-linejoin:round;stroke-miterlimit:4;stroke-dasharray:none;stroke-opacity:1"
           id="rect1448"
           width="131.7625"
           height="175.15417"
           x="-220.66251"
           y="339.33334"
           clip-path="url(#clipPath1452)"
           transform="translate(0,-0.74835468)" />
        <path
           style="fill:none;stroke:#000000;stroke-width:0.26458332px;stroke-linecap:butt;stroke-linejoin:miter;stroke-opacity:1"
           d="m -333.84746,273.84896 v 0"
           id="path823"
           inkscape:connector-curvature="0" />
        <rect
           style="opacity:1;fill:#211f22;fill-opacity:1;stroke:#000000;stroke-width:0;stroke-linejoin:round;stroke-miterlimit:4;stroke-dasharray:none;stroke-opacity:1"
           id="rect927-3-5"
           width="250.50751"
           height="175.86334"
           x="-345.16678"
           y="281.8606"
           clip-path="url(#clipPath1069)" />
        <rect
           style="opacity:1;fill:#3f8869;fill-opacity:1;stroke:#000000;stroke-width:0;stroke-linejoin:round;stroke-miterlimit:4;stroke-dasharray:none;stroke-opacity:1"
           id="rect1345"
           width="127.52917"
           height="137.05417"
           x="-239.18333"
           y="231.91251"
           clip-path="url(#clipPath1349)"
           transform="matrix(1.0305344,0,0,1.0426407,4.6700763,-13.594062)" />
        <g
           id="g1373"
           transform="matrix(1.0125156,0,0,1.0186855,3.7386056,-7.8987811)">
          <g
             id="g1120">
            <g
               id="g1084">
              <rect
                 clip-path="url(#clipPath1030)"
                 y="281.8606"
                 x="-345.16678"
                 height="175.86334"
                 width="250.50751"
                 id="rect927-3"
                 style="opacity:1;fill:#211f22;fill-opacity:1;stroke:#000000;stroke-width:0;stroke-linejoin:round;stroke-miterlimit:4;stroke-dasharray:none;stroke-opacity:1" />
            </g>
            <rect
               style="opacity:1;fill:#211f22;fill-opacity:1;stroke:#000000;stroke-width:0;stroke-linejoin:round;stroke-miterlimit:4;stroke-dasharray:none;stroke-opacity:1"
               id="rect927-3-5-4"
               width="250.50751"
               height="175.86334"
               x="-345.16678"
               y="281.8606"
               clip-path="url(#clipPath1103)" />
          </g>
          <rect
             clip-path="url(#clipPath1357)"
             y="253.60831"
             x="-242.35834"
             height="92.604164"
             width="145.52083"
             id="rect1353"
             style="opacity:1;fill:#1b1d1c;fill-opacity:1;stroke:#000000;stroke-width:0;stroke-linejoin:round;stroke-miterlimit:4;stroke-dasharray:none;stroke-opacity:1" />
        </g>
        <rect
           style="opacity:1;fill:#1b1d1c;fill-opacity:1;stroke:#000000;stroke-width:0;stroke-linejoin:round;stroke-miterlimit:4;stroke-dasharray:none;stroke-opacity:1"
           id="rect1375"
           width="84.137497"
           height="84.137497"
           x="-158.22083"
           y="322.39999"
           clip-path="url(#clipPath1379)"
           transform="matrix(1.0125156,0,0,1.0186855,3.7386056,-7.8987811)" />
        <rect
           style="opacity:0.65899999;fill:#368162;fill-opacity:1;stroke:#000000;stroke-width:0;stroke-linejoin:round;stroke-miterlimit:4;stroke-dasharray:none;stroke-opacity:1"
           id="rect1392"
           width="21.166668"
           height="24.190477"
           x="-222.24998"
           y="323.53387"
           clip-path="url(#clipPath1417)" />
        <rect
           style="opacity:0.65899999;fill:#368162;fill-opacity:1;stroke:#000000;stroke-width:0;stroke-linejoin:round;stroke-miterlimit:4;stroke-dasharray:none;stroke-opacity:1"
           id="rect1392-4"
           width="21.166668"
           height="24.190477"
           x="-166.6875"
           y="320.88809"
           clip-path="url(#clipPath1423)" />
        <rect
           style="opacity:1;fill:#1b1d1c;fill-opacity:1;stroke:#000000;stroke-width:0;stroke-linejoin:round;stroke-miterlimit:4;stroke-dasharray:none;stroke-opacity:1"
           id="rect1466"
           width="42.805244"
           height="51.549191"
           x="-178.1084"
           y="346.01724"
           clip-path="url(#clipPath1470)"
           transform="matrix(1.173913,0,0,1.2184327,28.388667,-79.421678)" />
        <rect
           style="opacity:0.65899999;fill:#368162;fill-opacity:1;stroke:#000000;stroke-width:0;stroke-linejoin:round;stroke-miterlimit:4;stroke-dasharray:none;stroke-opacity:1"
           id="rect1392-8"
           width="21.166668"
           height="24.190477"
           x="-156.63333"
           y="358.45895"
           clip-path="url(#clipPath1429)" />
      </g>
    </g>
  </g>
</svg>
