<?xml version="1.0" encoding="UTF-8" standalone="no"?>
<!-- Created with Inkscape (http://www.inkscape.org/) -->

<svg
   xmlns:dc="http://purl.org/dc/elements/1.1/"
   xmlns:cc="http://creativecommons.org/ns#"
   xmlns:rdf="http://www.w3.org/1999/02/22-rdf-syntax-ns#"
   xmlns:svg="http://www.w3.org/2000/svg"
   xmlns="http://www.w3.org/2000/svg"
   xmlns:sodipodi="http://sodipodi.sourceforge.net/DTD/sodipodi-0.dtd"
   xmlns:inkscape="http://www.inkscape.org/namespaces/inkscape"
   width="210mm"
   height="297mm"
   viewBox="0 0 210 297"
   version="1.1"
   id="svg8"
   inkscape:version="0.92.2 2405546, 2018-03-11"
   sodipodi:docname="spoiler.svg">
  <defs
     id="defs2">
    <clipPath
       clipPathUnits="userSpaceOnUse"
       id="clipPath827">
      <path
         style="fill:none;stroke:#000000;stroke-width:0.26458332px;stroke-linecap:butt;stroke-linejoin:miter;stroke-opacity:1"
         d="m -322.41368,293.97619 20.4107,57.45239 34.01787,18.89879 34.7738,-0.37796 30.61607,-18.14287 21.16667,-57.07439 2.26786,-51.0268 -74.08334,-34.39583 -85.8006,48.38095 z"
         id="path829"
         inkscape:connector-curvature="0" />
    </clipPath>
    <clipPath
       clipPathUnits="userSpaceOnUse"
       id="clipPath835">
      <path
         style="fill:none;stroke:#000000;stroke-width:0.31074002px;stroke-linecap:butt;stroke-linejoin:miter;stroke-opacity:1"
         d="m -363.89164,264.14023 9.76608,40.39619 h -15.53699 l -15.53702,-17.75653 6.21482,-21.75182 z"
         id="path837"
         inkscape:connector-curvature="0" />
    </clipPath>
    <clipPath
       clipPathUnits="userSpaceOnUse"
       id="clipPath835-0">
      <path
         style="fill:none;stroke:#000000;stroke-width:0.31074002px;stroke-linecap:butt;stroke-linejoin:miter;stroke-opacity:1"
         d="m -363.89164,264.14023 9.76608,40.39619 h -15.53699 l -15.53702,-17.75653 6.21482,-21.75182 z"
         id="path837-3"
         inkscape:connector-curvature="0" />
    </clipPath>
    <clipPath
       clipPathUnits="userSpaceOnUse"
       id="clipPath905">
      <g
         id="g923">
        <path
           inkscape:connector-curvature="0"
           id="path907"
           d="m -139.27968,416.13536 6.21482,21.75182 -9.92434,11.72372 3.47451,3.74176 6.68174,1.06908 -4.00905,-6.41446 12.02713,-2.40543 -3.4745,-2.40543 0.80181,-5.61266 4.54358,3.47451"
           style="fill:none;stroke:#000000;stroke-width:0.26458332px;stroke-linecap:butt;stroke-linejoin:miter;stroke-opacity:1" />
        <g
           id="g921">
          <path
             style="fill:none;stroke:#000000;stroke-width:0.26458332px;stroke-linecap:butt;stroke-linejoin:miter;stroke-opacity:1"
             d="m -122.94398,441.05827 9.35443,-4.2763 -4.81085,-1.60362 -5.07812,-9.6217 7.48355,-0.53454 3.4745,5.87992 v -15.23437 l -8.28535,-3.47451 10.15624,-6.68173 -1.60362,-15.50162 -5.34539,4.81084 -14.69982,-11.22532 5.87993,-1.06908 6.41446,5.07813 -0.8018,-8.81989 -10.42352,-6.41448 11.75986,-16.03616 -10.42351,4.81084 -8.01808,0.26726 3.20723,-3.47448 -13.09621,3.74176 -5.61266,-5.61266 6.41447,-0.80182 -13.63074,-11.49257 -15.23437,3.47451 5.07812,-17.37254 -8.01808,7.48355 -12.82894,2.93997 -12.02713,5.07812 -4.54358,-22.45064 -5.87993,11.22532 -9.35443,6.1472 1.60362,-8.28535 -3.20724,-1.60361 -6.94901,9.35442 1.87089,12.2944 -16.57071,-8.55263 -5.61266,-13.63075 -2.93997,12.29442 6.41447,10.42349 -6.94901,8.0181 -21.9161,-4.27631 3.20723,11.22532 4.54358,1.60362 -20.0452,5.07812 -5.07812,8.55263 16.57069,-2.93997 0.26729,6.41445 1.87089,8.28537 3.45787,15.83947"
             id="path909"
             inkscape:connector-curvature="0" />
          <path
             style="fill:none;stroke:#000000;stroke-width:0.26458332px;stroke-linecap:butt;stroke-linejoin:miter;stroke-opacity:1"
             d="m -294.53101,412.46043 -10.42353,-14.16528 -7.75081,14.16528 -1.06907,-10.42352"
             id="path911"
             inkscape:connector-curvature="0" />
          <path
             style="fill:none;stroke:#000000;stroke-width:0.26458332px;stroke-linecap:butt;stroke-linejoin:miter;stroke-opacity:1"
             d="m -313.77442,402.03691 -17.6398,10.69078 11.75988,-4.00905 -11.4926,8.0181 -2.93997,-0.8018 4.27633,5.61266 12.02711,-1.33636 -3.74176,15.76891 2.67268,-0.8018 4.00905,-5.87994 12.02714,1.60362 3.60794,-14.81299 5.74648,-0.1541 -1.06907,-3.47451"
             id="path913"
             inkscape:connector-curvature="0" />
          <path
             style="fill:none;stroke:#000000;stroke-width:0.26458332px;stroke-linecap:butt;stroke-linejoin:miter;stroke-opacity:1"
             d="m -322.41368,391.11607 16.25296,-14.36309 2.26787,-5.29166 -18.89881,15.11903"
             id="path915"
             inkscape:connector-curvature="0" />
          <path
             style="fill:none;stroke:#000000;stroke-width:0.26458332px;stroke-linecap:butt;stroke-linejoin:miter;stroke-opacity:1"
             d="m -322.79166,386.58035 -22.30059,-1.51191 22.67857,6.04763 -20.41072,13.41816 4.72471,7.9375 6.68547,0.25596"
             id="path917"
             inkscape:connector-curvature="0" />
          <path
             style="fill:none;stroke:#000000;stroke-width:0.26458332px;stroke-linecap:butt;stroke-linejoin:miter;stroke-opacity:1"
             d="m -317.51619,338.69405 16.5707,11.22531 -2.67269,-14.9671 z"
             id="path919"
             inkscape:connector-curvature="0" />
        </g>
      </g>
    </clipPath>
    <clipPath
       clipPathUnits="userSpaceOnUse"
       id="clipPath1030">
      <path
         style="fill:none;stroke:#000000;stroke-width:0.26458332px;stroke-linecap:butt;stroke-linejoin:miter;stroke-opacity:1"
         d="m -293.46194,415.93495 2.35196,5.6661 8.6061,1.12252 -1.61144,-7.52236 v 0 0 0 l -1.3701,-6.54704 4.10406,-0.5235 -2.24507,-7.48356 5.39885,-14.3791 8.44571,6.1472 1.8709,-9.7286 8.60608,-11.97366 3.36759,5.98683 2.24507,-5.61266 9.72861,5.98683 1.12253,-11.22531 12.72203,-13.79112 -4.86431,13.79112 5.23849,-1.12255 3.74177,11.59952 5.61266,-11.59952 2.99342,3.36761 1.12253,-13.09621 4.49013,-2.61924 5.98684,7.85773 -1.49671,11.22531 9.72861,-7.48355 5.23848,6.73521 -4.49013,10.10277 11.97368,-12.34784 5.61266,5.98683 -7.10937,10.85115 15.71545,-7.10939 9.35443,14.96711 -4.86431,11.5995 -3.36759,9.35442 12.34785,-10.85115 -2.12468,9.35657 6.08541,-3.70417 -1.17904,6.32878 v 0 l 3.95717,-2.88919 -1.85209,8.86354 3.83646,-6.08542 11.10817,-17.10859 -49.39141,-50.51393 -16.94489,-2.13815 -45.16855,7.21627 -29.66693,27.2615 z"
         id="path1032"
         inkscape:connector-curvature="0" />
    </clipPath>
    <clipPath
       clipPathUnits="userSpaceOnUse"
       id="clipPath1069">
      <path
         style="fill:none;stroke:#000000;stroke-width:0.26458332px;stroke-linecap:butt;stroke-linejoin:miter;stroke-opacity:1"
         d="m -293.46194,415.93495 1.36194,-19.98078 13.60514,-16.10061 z"
         id="path1071"
         inkscape:connector-curvature="0" />
    </clipPath>
    <clipPath
       clipPathUnits="userSpaceOnUse"
       id="clipPath1103">
      <path
         style="fill:none;stroke:#000000;stroke-width:0.26458332px;stroke-linecap:butt;stroke-linejoin:miter;stroke-opacity:1"
         d="m -134.70384,357.93746 -12.2944,-2.67271 10.79769,-5.87992 h 11.22532 l -15.34127,-15.71545 8.60608,-13.47039 -20.57975,5.61266 -8.23191,5.61266 -4.49012,-8.98025 -17.96052,3.74176 -13.47038,-5.61266 -2.24506,-21.32809 -23.199,15.71543 -19.08304,-20.95391 -1.87089,17.21215 h -5.23848 l 0.74835,-7.85773 -15.34127,9.72862 2.61924,18.33468 -20.57976,-19.8314 4.11596,12.72204 9.35443,13.84456 -19.45722,7.10936 -8.23191,-5.23849 5.23849,9.35445 -5.92632,1.32559 2.91041,2.38125 -6.08541,6.87917 24.22877,7.58833 50.38373,-19.75917 z"
         id="path1105"
         inkscape:connector-curvature="0" />
    </clipPath>
    <clipPath
       clipPathUnits="userSpaceOnUse"
       id="clipPath1304">
      <g
         id="g1314">
        <g
           id="g1310">
          <path
             style="fill:none;stroke:#000000;stroke-width:0.26458332px;stroke-linecap:butt;stroke-linejoin:miter;stroke-opacity:1"
             d="m -342.8244,404.53423 -12.7756,-15.9884 10.50775,-3.47739 -10.50775,-8.69344 8.46667,-10.05417 19.05,-2.11666 -18.52083,-11.64167 -7.9375,-12.17083 13.22916,4.23333 15.40405,-1.60118 -13.09622,-12.34787 15.15467,-2.98428 14.2875,-5.29167 -17.99166,-4.7625 -6.35,4.23333 5.29166,-6.87916 15.34584,-3.175 7.40833,1.05833 -1.5875,-5.82083 6.87917,-22.75417 6.35,15.34583 1.05833,-8.99583 15.34583,-20.10833 1.5875,10.05416 14.2875,8.46667 5.29167,6.87917 1.05833,-13.22917 17.99167,-16.40417 1.5875,17.99167 11.64167,-11.1125 12.7,-6.35 -6.87917,10.05417 h 7.9375 l 23.28333,-6.35"
             id="path1306"
             inkscape:connector-curvature="0" />
          <path
             style="fill:none;stroke:#000000;stroke-width:0.26458332px;stroke-linecap:butt;stroke-linejoin:miter;stroke-opacity:1"
             d="m -187.325,270.54167 -11.64166,15.875 21.69583,-2.64584 6.87917,5.29167 25.92916,1.5875 -14.81666,10.58333 31.22083,-1.05833 6.87916,-4.7625 -10.53125,24.78648 11.58959,2.73019 -6.87917,12.7 15.34583,10.05416 9.525,-5.29166 -6.35,17.99166"
             id="path1308"
             inkscape:connector-curvature="0" />
        </g>
        <path
           inkscape:connector-curvature="0"
           id="path1312"
           d="m -342.8244,404.53423 11.41018,8.19346 17.6398,-10.69078 20.31248,13.89803 23.51971,-46.77216 48.05507,-54.20228 -14.12117,-30.6605"
           style="fill:none;stroke:#000000;stroke-width:0.26458332px;stroke-linecap:butt;stroke-linejoin:miter;stroke-opacity:1" />
      </g>
    </clipPath>
    <clipPath
       clipPathUnits="userSpaceOnUse"
       id="clipPath1326">
      <g
         id="g1340">
        <g
           id="g1336">
          <g
             id="g1332">
            <path
               inkscape:connector-curvature="0"
               id="path1328"
               d="m -342.8244,404.53423 -12.7756,-15.9884 10.50775,-3.47739 -10.50775,-8.69344 8.46667,-10.05417 19.05,-2.11666 -18.52083,-11.64167 -7.9375,-12.17083 13.22916,4.23333 15.40405,-1.60118 -13.09622,-12.34787 15.15467,-2.98428 14.2875,-5.29167 -17.99166,-4.7625 -6.35,4.23333 5.29166,-6.87916 15.34584,-3.175 7.40833,1.05833 -1.5875,-5.82083 6.87917,-22.75417 6.35,15.34583 1.05833,-8.99583 15.34583,-20.10833 1.5875,10.05416 14.2875,8.46667 5.29167,6.87917 1.05833,-13.22917 17.99167,-16.40417 1.5875,17.99167 11.64167,-11.1125 12.7,-6.35 -6.87917,10.05417 h 7.9375 l 23.28333,-6.35"
               style="fill:none;stroke:#000000;stroke-width:0.26458332px;stroke-linecap:butt;stroke-linejoin:miter;stroke-opacity:1" />
            <path
               inkscape:connector-curvature="0"
               id="path1330"
               d="m -187.325,270.54167 -11.64166,15.875 21.69583,-2.64584 6.87917,5.29167 25.92916,1.5875 -14.81666,10.58333 31.22083,-1.05833 6.87916,-4.7625 -10.53125,24.78648 11.58959,2.73019 -6.87917,12.7 15.34583,10.05416 9.525,-5.29166 -6.35,17.99166"
               style="fill:none;stroke:#000000;stroke-width:0.26458332px;stroke-linecap:butt;stroke-linejoin:miter;stroke-opacity:1" />
          </g>
          <path
             style="fill:none;stroke:#000000;stroke-width:0.26458332px;stroke-linecap:butt;stroke-linejoin:miter;stroke-opacity:1"
             d="m -342.8244,404.53423 11.41018,8.19346 17.6398,-10.69078 20.31248,13.89803 23.51971,-46.77216 48.05507,-54.20228 -14.12117,-30.6605"
             id="path1334"
             inkscape:connector-curvature="0" />
        </g>
        <path
           inkscape:connector-curvature="0"
           id="path1338"
           d="m -102.12917,340.39167 -9.525,28.575 11.64167,1.05833 8.466668,12.7 -15.874998,-5.29167 1.90282,8.43378 7.29646,1.49672 -12.42803,18.14759 L -221.88716,314.9605 -236.00833,284.3"
           style="fill:none;stroke:#000000;stroke-width:0.26458332px;stroke-linecap:butt;stroke-linejoin:miter;stroke-opacity:1" />
      </g>
    </clipPath>
    <clipPath
       clipPathUnits="userSpaceOnUse"
       id="clipPath1349">
      <path
         style="fill:none;stroke:#000000;stroke-width:0.26458332px;stroke-linecap:butt;stroke-linejoin:miter;stroke-opacity:1"
         d="m -212.725,294.88334 69.78926,28.30906 2.24506,-0.37417 -46.63432,-52.27656 -26.89152,23.09074 1.87088,2.05796"
         id="path1351"
         inkscape:connector-curvature="0" />
    </clipPath>
    <clipPath
       clipPathUnits="userSpaceOnUse"
       id="clipPath1357">
      <path
         style="fill:none;stroke:#000000;stroke-width:0.26458332px;stroke-linecap:butt;stroke-linejoin:miter;stroke-opacity:1"
         d="m -233.3625,301.23334 8.99584,-17.4625 6.87916,12.7 23.28334,-15.34584 3.70416,18.52084 18.52084,-1.05834 -8.99584,12.7 h 26.45834 l 14.2875,-6.35 v 5.29167 l 12.69999,-8.99583 6.35,-4.7625 -10.58333,24.87083 11.1125,2.64583 -3.175,7.40834 21.16667,8.46666 -38.1,-4.23333 L -228.6,323.9875 Z"
         id="path1359"
         inkscape:connector-curvature="0" />
    </clipPath>
    <clipPath
       clipPathUnits="userSpaceOnUse"
       id="clipPath1379">
      <path
         style="fill:none;stroke:#000000;stroke-width:0.26458332px;stroke-linecap:butt;stroke-linejoin:miter;stroke-opacity:1"
         d="m -110.06667,405.47917 15.345839,-8.99583 -6.349999,-1.05834 -7.9375,-13.22916 16.93333,2.64583 -6.35,-16.93333 -11.64167,-5.82084 10.583339,-2.64583 12.170831,-22.75417 -18.52083,3.70417 -41.80417,-10.05417 -11.1125,35.45417 z"
         id="path1381"
         inkscape:connector-curvature="0" />
    </clipPath>
    <clipPath
       clipPathUnits="userSpaceOnUse"
       id="clipPath1417">
      <path
         style="fill:none;stroke:#000000;stroke-width:0.26458332px;stroke-linecap:butt;stroke-linejoin:miter;stroke-opacity:1"
         d="m -215.37083,328.22084 -2.11667,19.05 6.35,-8.99584 z"
         id="path1419"
         inkscape:connector-curvature="0" />
    </clipPath>
    <clipPath
       clipPathUnits="userSpaceOnUse"
       id="clipPath1423">
      <path
         style="fill:none;stroke:#000000;stroke-width:0.26458332px;stroke-linecap:butt;stroke-linejoin:miter;stroke-opacity:1"
         d="m -159.80833,327.69167 4.23333,-1.5875 8.46667,7.9375 -4.7625,2.11667 -11.64167,-4.7625 z"
         id="path1425"
         inkscape:connector-curvature="0" />
    </clipPath>
    <clipPath
       clipPathUnits="userSpaceOnUse"
       id="clipPath1429">
      <path
         style="fill:none;stroke:#000000;stroke-width:0.26458332px;stroke-linecap:butt;stroke-linejoin:miter;stroke-opacity:1"
         d="m -151.16764,363.22939 -0.37418,4.86431 7.10937,12.34784 1.87089,-0.37417 0.37417,-10.47697 -7.10937,-3.36759 z"
         id="path1431"
         inkscape:connector-curvature="0" />
    </clipPath>
    <clipPath
       clipPathUnits="userSpaceOnUse"
       id="clipPath1452">
      <path
         style="fill:none;stroke:#000000;stroke-width:0.26458332px;stroke-linecap:butt;stroke-linejoin:miter;stroke-opacity:1"
         d="m -220.13333,493.32084 21.16667,-1.05834 29.46564,-17.27403 7.38869,-19.33729 13.51045,-0.007 15.53702,-17.75653 -6.21482,-21.75182 -8.801,-0.89532 0.28063,-53.56082 -72.99474,-8.7199 z"
         id="path1454"
         inkscape:connector-curvature="0" />
    </clipPath>
    <clipPath
       clipPathUnits="userSpaceOnUse"
       id="clipPath1470">
      <path
         style="fill:none;stroke:#000000;stroke-width:0.26458332px;stroke-linecap:butt;stroke-linejoin:miter;stroke-opacity:1"
         d="m -173.99246,358.73925 25.81824,27.12787 -0.18709,-11.5995 -3.18051,-6.17392 -5.09151,-9.63474 z"
         id="path1472"
         inkscape:connector-curvature="0" />
    </clipPath>
    <clipPath
       clipPathUnits="userSpaceOnUse"
       id="clipPath1015">
      <path
         style="fill:none;stroke:#000000;stroke-width:0.26458332px;stroke-linecap:butt;stroke-linejoin:miter;stroke-opacity:1"
         d="m -370.94583,268.425 h -22.225 l -17.4625,-5.29167 20.6375,-6.87917 -16.93334,-1.5875 20.6375,-7.40833 h -11.64166 l 10.05416,-14.2875 142.87501,1.05834 21.16667,10.05416 h -21.16667 l 16.93333,5.29167 -17.46249,5.82083 23.81249,0.52917 -30.95624,13.75834 z"
         id="path1017"
         inkscape:connector-curvature="0" />
    </clipPath>
    <clipPath
       clipPathUnits="userSpaceOnUse"
       id="clipPath1021">
      <path
         style="fill:none;stroke:#000000;stroke-width:0.26458332px;stroke-linecap:butt;stroke-linejoin:miter;stroke-opacity:1"
         d="m -378.88333,206.5125 7.9375,8.99583 v -13.22916 l -5.29167,-5.29167 4.23333,-11.1125 4.7625,2.11667 2.64584,-15.34583 9.525,-1.05834 0.52916,-8.46666 4.23334,-3.175 33.3375,5.82083 12.7,-3.70417 30.1625,-48.68333 -20.6375,22.225 17.99166,-89.95833 -30.69166,89.42916 -5.29167,-2.11666 -3.175,28.575 -5.82083,-26.45834 -4.23334,1.5875 3.175,21.69584 -11.64166,-11.64167 -4.7625,1.05833 12.17083,13.75834 -13.22917,-1.5875 -22.75416,-30.1625 -25.92917,-62.441667 17.4625,58.737497 -29.10417,-36.512497 30.1625,52.387497 8.46667,10.05417 -8.46667,3.70416 -1.05833,12.17084 -7.9375,3.70416 0.52917,15.875 -5.82084,7.9375 1.05834,7.9375 z"
         id="path1023"
         inkscape:connector-curvature="0" />
    </clipPath>
    <clipPath
       clipPathUnits="userSpaceOnUse"
       id="clipPath1044">
      <path
         style="fill:none;stroke:#000000;stroke-width:0.26458332px;stroke-linecap:butt;stroke-linejoin:miter;stroke-opacity:1"
         d="m -380.91253,205.70073 -5.79974,0.56126 0.4206,-14.03699 1.5875,-5.82083 1.05834,-20.6375 6.87916,-4.7625 1.5875,-10.58333 4.23334,-3.175 43.92083,-18.52084 5.82083,-3.70416 60.32501,22.225 4.7625,12.7 10.05417,8.46666 v 16.93333 l 3.175,4.23334 -2.64583,16.93333 -6.35,-0.52917 -8.91828,-17.49476 3.3676,0.37418 -9.72862,-14.59292 h 4.11596 l -13.47039,-11.97367 -6.361,-0.37418 -1.49673,-3.36759 -10.85114,2.61924 0.37417,-3.3676 -9.72859,4.49013 -12.39049,3.47051 -33.3375,-5.82083 -15.45,10.1145 z"
         id="path1046"
         inkscape:connector-curvature="0" />
    </clipPath>
    <clipPath
       clipPathUnits="userSpaceOnUse"
       id="clipPath1065">
      <path
         style="fill:none;stroke:#000000;stroke-width:0.26458332px;stroke-linecap:butt;stroke-linejoin:miter;stroke-opacity:1"
         d="M -400.57917,89.566673 -406.4,77.925007 -381.52917,106.5 l -10.05416,-51.858327 19.57916,35.983331 -10.05416,-36.512497 -4.23334,-23.283334 47.09584,116.945827 17.99166,-22.75416 15.31419,5.61056 28.07748,-107.21056 3.70417,89.95833 9.52501,-48.154163 -3.17501,53.710413 22.29801,-23.991178 -32.55345,46.585078 -72.29456,18.41652 z"
         id="path1067"
         inkscape:connector-curvature="0" />
    </clipPath>
    <clipPath
       clipPathUnits="userSpaceOnUse"
       id="clipPath1098">
      <path
         style="fill:none;stroke:#000000;stroke-width:0.26458332px;stroke-linecap:butt;stroke-linejoin:miter;stroke-opacity:1"
         d="m -280.8201,145.45818 -3.92885,5.61266 3.49687,-0.12084 6.08541,-2.64583 z"
         id="path1100"
         inkscape:connector-curvature="0" />
    </clipPath>
    <clipPath
       clipPathUnits="userSpaceOnUse"
       id="clipPath1104">
      <path
         style="fill:none;stroke:#000000;stroke-width:0.26458332px;stroke-linecap:butt;stroke-linejoin:miter;stroke-opacity:1"
         d="m -280.72292,161.79792 5.29167,0.26458 3.70417,0.26459 -0.26459,-1.5875 -2.91041,-0.52917 -1.5875,-2.64583 -3.70417,1.5875 z"
         id="path1106"
         inkscape:connector-curvature="0" />
    </clipPath>
    <clipPath
       clipPathUnits="userSpaceOnUse"
       id="clipPath1110">
      <path
         style="fill:none;stroke:#000000;stroke-width:0.26458332px;stroke-linecap:butt;stroke-linejoin:miter;stroke-opacity:1"
         d="m -260.34999,174.7625 7.67292,5.29167 0.26458,-2.91042 -6.87917,-3.43958 z"
         id="path1112"
         inkscape:connector-curvature="0" />
    </clipPath>
    <clipPath
       clipPathUnits="userSpaceOnUse"
       id="clipPath1116">
      <path
         style="fill:none;stroke:#000000;stroke-width:0.26458332px;stroke-linecap:butt;stroke-linejoin:miter;stroke-opacity:1"
         d="m -255.00185,199.71389 3.46114,6.26747 6.08039,0.46772 v -1.4967 z"
         id="path1118"
         inkscape:connector-curvature="0" />
    </clipPath>
    <clipPath
       clipPathUnits="userSpaceOnUse"
       id="clipPath903">
      <path
         style="fill:none;stroke:#000000;stroke-width:0.26458332px;stroke-linecap:butt;stroke-linejoin:miter;stroke-opacity:1"
         d="m -218.37295,364.63372 48.62555,43.76301 c 98.165887,51.09602 279.09075,32.32772 355.67703,-128.74937 L 10.002461,-48.084917 -72.517844,322.00615 Z"
         id="path905"
         inkscape:connector-curvature="0"
         sodipodi:nodetypes="cccccc" />
    </clipPath>
    <clipPath
       clipPathUnits="userSpaceOnUse"
       id="clipPath927">
      <path
         style="fill:none;stroke:#000000;stroke-width:0.26707456px;stroke-linecap:butt;stroke-linejoin:miter;stroke-opacity:1"
         d="m 46.085572,178.97405 1.898364,5.79478 8.26347,7.02058 0.223337,-11.36666 z"
         id="path929"
         inkscape:connector-curvature="0" />
    </clipPath>
    <clipPath
       clipPathUnits="userSpaceOnUse"
       id="clipPath903-6">
      <path
         style="fill:none;stroke:#000000;stroke-width:0.26458332px;stroke-linecap:butt;stroke-linejoin:miter;stroke-opacity:1"
         d="m -218.37295,364.63372 48.62555,43.76301 c 98.165887,51.09602 279.09075,32.32772 355.67703,-128.74937 L 10.002461,-48.084917 -72.517844,322.00615 Z"
         id="path905-9"
         inkscape:connector-curvature="0"
         sodipodi:nodetypes="cccccc" />
    </clipPath>
    <clipPath
       clipPathUnits="userSpaceOnUse"
       id="clipPath952">
      <path
         style="fill:none;stroke:#000000;stroke-width:0.26458332px;stroke-linecap:butt;stroke-linejoin:miter;stroke-opacity:1"
         d="m -176.95129,-38.043128 104.279122,182.945818 -44.856752,2.68554 z"
         id="path954"
         inkscape:connector-curvature="0" />
    </clipPath>
  </defs>
  <sodipodi:namedview
     id="base"
     pagecolor="#ffffff"
     bordercolor="#666666"
     borderopacity="1.0"
     inkscape:pageopacity="0.0"
     inkscape:pageshadow="2"
     inkscape:zoom="0.21161457"
     inkscape:cx="-277.6924"
     inkscape:cy="335.176"
     inkscape:document-units="mm"
     inkscape:current-layer="layer1"
     showgrid="false"
     inkscape:window-width="1920"
     inkscape:window-height="1048"
     inkscape:window-x="0"
     inkscape:window-y="0"
     inkscape:window-maximized="1"
     inkscape:snap-global="true"
     inkscape:pagecheckerboard="true" />
  <metadata
     id="metadata5">
    <rdf:RDF>
      <cc:Work
         rdf:about="">
        <dc:format>image/svg+xml</dc:format>
        <dc:type
           rdf:resource="http://purl.org/dc/dcmitype/StillImage" />
        <dc:title />
      </cc:Work>
    </rdf:RDF>
  </metadata>
  <g
     inkscape:label="Layer 1"
     inkscape:groupmode="layer"
     id="layer1">
    <g
       id="g995"
       inkscape:export-xdpi="96"
       inkscape:export-ydpi="96">
      <circle
         r="266.31555"
         cy="167.96375"
         cx="-55.749664"
         id="path815"
         style="opacity:1;fill:#b71c1c;fill-opacity:1;stroke:#000000;stroke-width:0;stroke-linejoin:round;stroke-miterlimit:4;stroke-dasharray:none;stroke-opacity:1" />
      <rect
         clip-path="url(#clipPath903)"
         y="-64.945518"
         x="-311.30804"
         height="522.59149"
         width="515.71478"
         id="rect897"
         style="opacity:0.37300002;fill:#000000;fill-opacity:1;stroke:#000000;stroke-width:0.43710229;stroke-linejoin:round;stroke-miterlimit:4;stroke-dasharray:none;stroke-opacity:1" />
      <rect
         clip-path="url(#clipPath952)"
         y="-50.849335"
         x="-209.48596"
         height="276.31802"
         width="220.05415"
         id="rect942"
         style="opacity:0.4510002;fill:#000000;fill-opacity:1;stroke:#000000;stroke-width:0;stroke-linejoin:round;stroke-miterlimit:4;stroke-dasharray:none;stroke-opacity:1" />
      <g
         transform="matrix(1.728622,0,0,1.728622,490.80099,-91.335115)"
         id="g1134">
        <rect
           style="opacity:1;fill:#7d6c50;fill-opacity:1;stroke:#000000;stroke-width:0;stroke-linejoin:round;stroke-miterlimit:4;stroke-dasharray:none;stroke-opacity:1"
           id="rect991"
           width="257.17499"
           height="262.46667"
           x="-437.09164"
           y="7.0166745"
           clip-path="url(#clipPath1015)" />
        <g
           id="g943"
           transform="translate(43.920832,190.49999)">
          <g
             transform="matrix(0.90625,0,0,0.90625,-155.97238,-160.12041)"
             id="g863">
            <circle
               style="opacity:1;fill:#ffdebd;fill-opacity:1;stroke:#000000;stroke-width:0;stroke-linejoin:round;stroke-miterlimit:4;stroke-dasharray:none;stroke-opacity:1"
               id="path836"
               cx="-251.73212"
               cy="300.77975"
               r="70.938194"
               clip-path="url(#clipPath827)"
               transform="translate(27.214286,-98.651786)" />
            <rect
               style="opacity:1;fill:#ffdebd;fill-opacity:1;stroke:#000000;stroke-width:0;stroke-linejoin:round;stroke-miterlimit:4;stroke-dasharray:none;stroke-opacity:1"
               id="rect831"
               width="96.005951"
               height="85.800591"
               x="-420.30951"
               y="244.83928"
               clip-path="url(#clipPath835)"
               transform="translate(73.896383,-70.772744)" />
            <rect
               style="opacity:1;fill:#ffdebd;fill-opacity:1;stroke:#000000;stroke-width:0;stroke-linejoin:round;stroke-miterlimit:4;stroke-dasharray:none;stroke-opacity:1"
               id="rect831-0"
               width="96.005951"
               height="85.800591"
               x="-420.30951"
               y="244.83928"
               clip-path="url(#clipPath835-0)"
               transform="matrix(-1,0,0,1,-524.14436,-70.726418)" />
          </g>
          <rect
             transform="matrix(0.90625,0,0,0.90625,-161.30107,-361.15722)"
             clip-path="url(#clipPath1452)"
             y="339.33334"
             x="-220.66251"
             height="175.15417"
             width="131.7625"
             id="rect1448"
             style="opacity:0.55100002;fill:#e5c7a9;fill-opacity:1;stroke:#000000;stroke-width:0;stroke-linejoin:round;stroke-miterlimit:4;stroke-dasharray:none;stroke-opacity:1" />
        </g>
        <rect
           style="opacity:1;fill:#f2ed9a;fill-opacity:1;stroke:#000000;stroke-width:0;stroke-linejoin:round;stroke-miterlimit:4;stroke-dasharray:none;stroke-opacity:1"
           id="rect1025"
           width="224.89583"
           height="267.75833"
           x="-432.32916"
           y="-15.208325"
           clip-path="url(#clipPath1044)" />
        <rect
           style="opacity:1;fill:#f2ed9a;fill-opacity:1;stroke:#000000;stroke-width:0;stroke-linejoin:round;stroke-miterlimit:4;stroke-dasharray:none;stroke-opacity:1"
           id="rect1025-3"
           width="224.89583"
           height="267.75833"
           x="-430.47708"
           y="-43.254158"
           clip-path="url(#clipPath1065)" />
        <rect
           style="opacity:1;fill:#7a6950;fill-opacity:1;stroke:#000000;stroke-width:0;stroke-linejoin:round;stroke-miterlimit:4;stroke-dasharray:none;stroke-opacity:1"
           id="rect991-3"
           width="257.17499"
           height="262.46667"
           x="-444.5"
           y="20.708738"
           clip-path="url(#clipPath1021)" />
        <rect
           style="opacity:1;fill:#7d6c50;fill-opacity:1;stroke:#000000;stroke-width:0;stroke-linejoin:round;stroke-miterlimit:4;stroke-dasharray:none;stroke-opacity:1"
           id="rect1025-3-0"
           width="10.882667"
           height="12.956775"
           x="-285.79678"
           y="141.85585"
           clip-path="url(#clipPath1098)" />
        <rect
           style="opacity:1;fill:#7d6c50;fill-opacity:1;stroke:#000000;stroke-width:0;stroke-linejoin:round;stroke-miterlimit:4;stroke-dasharray:none;stroke-opacity:1"
           id="rect1025-3-0-9"
           width="10.882667"
           height="12.956776"
           x="-280.83585"
           y="153.94688"
           clip-path="url(#clipPath1104)" />
        <rect
           style="opacity:1;fill:#7d6c50;fill-opacity:1;stroke:#000000;stroke-width:0;stroke-linejoin:round;stroke-miterlimit:4;stroke-dasharray:none;stroke-opacity:1"
           id="rect1025-3-0-2"
           width="10.882667"
           height="12.956776"
           x="-262.08936"
           y="169.59814"
           clip-path="url(#clipPath1110)" />
        <rect
           style="opacity:1;fill:#7d6c50;fill-opacity:1;stroke:#000000;stroke-width:0;stroke-linejoin:round;stroke-miterlimit:4;stroke-dasharray:none;stroke-opacity:1"
           id="rect1025-3-0-5"
           width="10.882667"
           height="12.956776"
           x="-256.14014"
           y="199.59653"
           clip-path="url(#clipPath1116)" />
      </g>
      <rect
         clip-path="url(#clipPath927)"
         y="171.23663"
         x="35.916603"
         height="28.733286"
         width="33.15379"
         id="rect923"
         style="opacity:0.37300002;fill:#b71c1c;fill-opacity:1;stroke:#000000;stroke-width:0.40000001;stroke-linejoin:round;stroke-miterlimit:4;stroke-dasharray:none;stroke-opacity:1" />
    </g>
  </g>
</svg>
