<?xml version="1.0" encoding="UTF-8" standalone="no"?>
<!-- Created with Inkscape (http://www.inkscape.org/) -->

<svg
   xmlns:dc="http://purl.org/dc/elements/1.1/"
   xmlns:cc="http://creativecommons.org/ns#"
   xmlns:rdf="http://www.w3.org/1999/02/22-rdf-syntax-ns#"
   xmlns:svg="http://www.w3.org/2000/svg"
   xmlns="http://www.w3.org/2000/svg"
   xmlns:sodipodi="http://sodipodi.sourceforge.net/DTD/sodipodi-0.dtd"
   xmlns:inkscape="http://www.inkscape.org/namespaces/inkscape"
   width="210mm"
   height="297mm"
   viewBox="0 0 210 297"
   version="1.1"
   id="svg8"
   inkscape:version="0.92.2 2405546, 2018-03-11"
   sodipodi:docname="assistant.svg">
  <defs
     id="defs2">
    <clipPath
       clipPathUnits="userSpaceOnUse"
       id="clipPath827">
      <path
         style="fill:none;stroke:#000000;stroke-width:0.26458332px;stroke-linecap:butt;stroke-linejoin:miter;stroke-opacity:1"
         d="m -322.41368,293.97619 20.4107,57.45239 34.01787,18.89879 34.7738,-0.37796 30.61607,-18.14287 21.16667,-57.07439 2.26786,-51.0268 -74.08334,-34.39583 -85.8006,48.38095 z"
         id="path829"
         inkscape:connector-curvature="0" />
    </clipPath>
    <clipPath
       clipPathUnits="userSpaceOnUse"
       id="clipPath835">
      <path
         style="fill:none;stroke:#000000;stroke-width:0.31074002px;stroke-linecap:butt;stroke-linejoin:miter;stroke-opacity:1"
         d="m -363.89164,264.14023 9.76608,40.39619 h -15.53699 l -15.53702,-17.75653 6.21482,-21.75182 z"
         id="path837"
         inkscape:connector-curvature="0" />
    </clipPath>
    <clipPath
       clipPathUnits="userSpaceOnUse"
       id="clipPath835-0">
      <path
         style="fill:none;stroke:#000000;stroke-width:0.31074002px;stroke-linecap:butt;stroke-linejoin:miter;stroke-opacity:1"
         d="m -363.89164,264.14023 9.76608,40.39619 h -15.53699 l -15.53702,-17.75653 6.21482,-21.75182 z"
         id="path837-3"
         inkscape:connector-curvature="0" />
    </clipPath>
    <clipPath
       clipPathUnits="userSpaceOnUse"
       id="clipPath905">
      <g
         id="g923">
        <path
           inkscape:connector-curvature="0"
           id="path907"
           d="m -139.27968,416.13536 6.21482,21.75182 -9.92434,11.72372 3.47451,3.74176 6.68174,1.06908 -4.00905,-6.41446 12.02713,-2.40543 -3.4745,-2.40543 0.80181,-5.61266 4.54358,3.47451"
           style="fill:none;stroke:#000000;stroke-width:0.26458332px;stroke-linecap:butt;stroke-linejoin:miter;stroke-opacity:1" />
        <g
           id="g921">
          <path
             style="fill:none;stroke:#000000;stroke-width:0.26458332px;stroke-linecap:butt;stroke-linejoin:miter;stroke-opacity:1"
             d="m -122.94398,441.05827 9.35443,-4.2763 -4.81085,-1.60362 -5.07812,-9.6217 7.48355,-0.53454 3.4745,5.87992 v -15.23437 l -8.28535,-3.47451 10.15624,-6.68173 -1.60362,-15.50162 -5.34539,4.81084 -14.69982,-11.22532 5.87993,-1.06908 6.41446,5.07813 -0.8018,-8.81989 -10.42352,-6.41448 11.75986,-16.03616 -10.42351,4.81084 -8.01808,0.26726 3.20723,-3.47448 -13.09621,3.74176 -5.61266,-5.61266 6.41447,-0.80182 -13.63074,-11.49257 -15.23437,3.47451 5.07812,-17.37254 -8.01808,7.48355 -12.82894,2.93997 -12.02713,5.07812 -4.54358,-22.45064 -5.87993,11.22532 -9.35443,6.1472 1.60362,-8.28535 -3.20724,-1.60361 -6.94901,9.35442 1.87089,12.2944 -16.57071,-8.55263 -5.61266,-13.63075 -2.93997,12.29442 6.41447,10.42349 -6.94901,8.0181 -21.9161,-4.27631 3.20723,11.22532 4.54358,1.60362 -20.0452,5.07812 -5.07812,8.55263 16.57069,-2.93997 0.26729,6.41445 1.87089,8.28537 3.45787,15.83947"
             id="path909"
             inkscape:connector-curvature="0" />
          <path
             style="fill:none;stroke:#000000;stroke-width:0.26458332px;stroke-linecap:butt;stroke-linejoin:miter;stroke-opacity:1"
             d="m -294.53101,412.46043 -10.42353,-14.16528 -7.75081,14.16528 -1.06907,-10.42352"
             id="path911"
             inkscape:connector-curvature="0" />
          <path
             style="fill:none;stroke:#000000;stroke-width:0.26458332px;stroke-linecap:butt;stroke-linejoin:miter;stroke-opacity:1"
             d="m -313.77442,402.03691 -17.6398,10.69078 11.75988,-4.00905 -11.4926,8.0181 -2.93997,-0.8018 4.27633,5.61266 12.02711,-1.33636 -3.74176,15.76891 2.67268,-0.8018 4.00905,-5.87994 12.02714,1.60362 3.60794,-14.81299 5.74648,-0.1541 -1.06907,-3.47451"
             id="path913"
             inkscape:connector-curvature="0" />
          <path
             style="fill:none;stroke:#000000;stroke-width:0.26458332px;stroke-linecap:butt;stroke-linejoin:miter;stroke-opacity:1"
             d="m -322.41368,391.11607 16.25296,-14.36309 2.26787,-5.29166 -18.89881,15.11903"
             id="path915"
             inkscape:connector-curvature="0" />
          <path
             style="fill:none;stroke:#000000;stroke-width:0.26458332px;stroke-linecap:butt;stroke-linejoin:miter;stroke-opacity:1"
             d="m -322.79166,386.58035 -22.30059,-1.51191 22.67857,6.04763 -20.41072,13.41816 4.72471,7.9375 6.68547,0.25596"
             id="path917"
             inkscape:connector-curvature="0" />
          <path
             style="fill:none;stroke:#000000;stroke-width:0.26458332px;stroke-linecap:butt;stroke-linejoin:miter;stroke-opacity:1"
             d="m -317.51619,338.69405 16.5707,11.22531 -2.67269,-14.9671 z"
             id="path919"
             inkscape:connector-curvature="0" />
        </g>
      </g>
    </clipPath>
    <clipPath
       clipPathUnits="userSpaceOnUse"
       id="clipPath1030">
      <path
         style="fill:none;stroke:#000000;stroke-width:0.26458332px;stroke-linecap:butt;stroke-linejoin:miter;stroke-opacity:1"
         d="m -293.46194,415.93495 2.35196,5.6661 8.6061,1.12252 -1.61144,-7.52236 v 0 0 0 l -1.3701,-6.54704 4.10406,-0.5235 -2.24507,-7.48356 5.39885,-14.3791 8.44571,6.1472 1.8709,-9.7286 8.60608,-11.97366 3.36759,5.98683 2.24507,-5.61266 9.72861,5.98683 1.12253,-11.22531 12.72203,-13.79112 -4.86431,13.79112 5.23849,-1.12255 3.74177,11.59952 5.61266,-11.59952 2.99342,3.36761 1.12253,-13.09621 4.49013,-2.61924 5.98684,7.85773 -1.49671,11.22531 9.72861,-7.48355 5.23848,6.73521 -4.49013,10.10277 11.97368,-12.34784 5.61266,5.98683 -7.10937,10.85115 15.71545,-7.10939 9.35443,14.96711 -4.86431,11.5995 -3.36759,9.35442 12.34785,-10.85115 -2.12468,9.35657 6.08541,-3.70417 -1.17904,6.32878 v 0 l 3.95717,-2.88919 -1.85209,8.86354 3.83646,-6.08542 11.10817,-17.10859 -49.39141,-50.51393 -16.94489,-2.13815 -45.16855,7.21627 -29.66693,27.2615 z"
         id="path1032"
         inkscape:connector-curvature="0" />
    </clipPath>
    <clipPath
       clipPathUnits="userSpaceOnUse"
       id="clipPath1069">
      <path
         style="fill:none;stroke:#000000;stroke-width:0.26458332px;stroke-linecap:butt;stroke-linejoin:miter;stroke-opacity:1"
         d="m -293.46194,415.93495 1.36194,-19.98078 13.60514,-16.10061 z"
         id="path1071"
         inkscape:connector-curvature="0" />
    </clipPath>
    <clipPath
       clipPathUnits="userSpaceOnUse"
       id="clipPath1103">
      <path
         style="fill:none;stroke:#000000;stroke-width:0.26458332px;stroke-linecap:butt;stroke-linejoin:miter;stroke-opacity:1"
         d="m -134.70384,357.93746 -12.2944,-2.67271 10.79769,-5.87992 h 11.22532 l -15.34127,-15.71545 8.60608,-13.47039 -20.57975,5.61266 -8.23191,5.61266 -4.49012,-8.98025 -17.96052,3.74176 -13.47038,-5.61266 -2.24506,-21.32809 -23.199,15.71543 -19.08304,-20.95391 -1.87089,17.21215 h -5.23848 l 0.74835,-7.85773 -15.34127,9.72862 2.61924,18.33468 -20.57976,-19.8314 4.11596,12.72204 9.35443,13.84456 -19.45722,7.10936 -8.23191,-5.23849 5.23849,9.35445 -5.92632,1.32559 2.91041,2.38125 -6.08541,6.87917 24.22877,7.58833 50.38373,-19.75917 z"
         id="path1105"
         inkscape:connector-curvature="0" />
    </clipPath>
    <clipPath
       clipPathUnits="userSpaceOnUse"
       id="clipPath1304">
      <g
         id="g1314">
        <g
           id="g1310">
          <path
             style="fill:none;stroke:#000000;stroke-width:0.26458332px;stroke-linecap:butt;stroke-linejoin:miter;stroke-opacity:1"
             d="m -342.8244,404.53423 -12.7756,-15.9884 10.50775,-3.47739 -10.50775,-8.69344 8.46667,-10.05417 19.05,-2.11666 -18.52083,-11.64167 -7.9375,-12.17083 13.22916,4.23333 15.40405,-1.60118 -13.09622,-12.34787 15.15467,-2.98428 14.2875,-5.29167 -17.99166,-4.7625 -6.35,4.23333 5.29166,-6.87916 15.34584,-3.175 7.40833,1.05833 -1.5875,-5.82083 6.87917,-22.75417 6.35,15.34583 1.05833,-8.99583 15.34583,-20.10833 1.5875,10.05416 14.2875,8.46667 5.29167,6.87917 1.05833,-13.22917 17.99167,-16.40417 1.5875,17.99167 11.64167,-11.1125 12.7,-6.35 -6.87917,10.05417 h 7.9375 l 23.28333,-6.35"
             id="path1306"
             inkscape:connector-curvature="0" />
          <path
             style="fill:none;stroke:#000000;stroke-width:0.26458332px;stroke-linecap:butt;stroke-linejoin:miter;stroke-opacity:1"
             d="m -187.325,270.54167 -11.64166,15.875 21.69583,-2.64584 6.87917,5.29167 25.92916,1.5875 -14.81666,10.58333 31.22083,-1.05833 6.87916,-4.7625 -10.53125,24.78648 11.58959,2.73019 -6.87917,12.7 15.34583,10.05416 9.525,-5.29166 -6.35,17.99166"
             id="path1308"
             inkscape:connector-curvature="0" />
        </g>
        <path
           inkscape:connector-curvature="0"
           id="path1312"
           d="m -342.8244,404.53423 11.41018,8.19346 17.6398,-10.69078 20.31248,13.89803 23.51971,-46.77216 48.05507,-54.20228 -14.12117,-30.6605"
           style="fill:none;stroke:#000000;stroke-width:0.26458332px;stroke-linecap:butt;stroke-linejoin:miter;stroke-opacity:1" />
      </g>
    </clipPath>
    <clipPath
       clipPathUnits="userSpaceOnUse"
       id="clipPath1326">
      <g
         id="g1340">
        <g
           id="g1336">
          <g
             id="g1332">
            <path
               inkscape:connector-curvature="0"
               id="path1328"
               d="m -342.8244,404.53423 -12.7756,-15.9884 10.50775,-3.47739 -10.50775,-8.69344 8.46667,-10.05417 19.05,-2.11666 -18.52083,-11.64167 -7.9375,-12.17083 13.22916,4.23333 15.40405,-1.60118 -13.09622,-12.34787 15.15467,-2.98428 14.2875,-5.29167 -17.99166,-4.7625 -6.35,4.23333 5.29166,-6.87916 15.34584,-3.175 7.40833,1.05833 -1.5875,-5.82083 6.87917,-22.75417 6.35,15.34583 1.05833,-8.99583 15.34583,-20.10833 1.5875,10.05416 14.2875,8.46667 5.29167,6.87917 1.05833,-13.22917 17.99167,-16.40417 1.5875,17.99167 11.64167,-11.1125 12.7,-6.35 -6.87917,10.05417 h 7.9375 l 23.28333,-6.35"
               style="fill:none;stroke:#000000;stroke-width:0.26458332px;stroke-linecap:butt;stroke-linejoin:miter;stroke-opacity:1" />
            <path
               inkscape:connector-curvature="0"
               id="path1330"
               d="m -187.325,270.54167 -11.64166,15.875 21.69583,-2.64584 6.87917,5.29167 25.92916,1.5875 -14.81666,10.58333 31.22083,-1.05833 6.87916,-4.7625 -10.53125,24.78648 11.58959,2.73019 -6.87917,12.7 15.34583,10.05416 9.525,-5.29166 -6.35,17.99166"
               style="fill:none;stroke:#000000;stroke-width:0.26458332px;stroke-linecap:butt;stroke-linejoin:miter;stroke-opacity:1" />
          </g>
          <path
             style="fill:none;stroke:#000000;stroke-width:0.26458332px;stroke-linecap:butt;stroke-linejoin:miter;stroke-opacity:1"
             d="m -342.8244,404.53423 11.41018,8.19346 17.6398,-10.69078 20.31248,13.89803 23.51971,-46.77216 48.05507,-54.20228 -14.12117,-30.6605"
             id="path1334"
             inkscape:connector-curvature="0" />
        </g>
        <path
           inkscape:connector-curvature="0"
           id="path1338"
           d="m -102.12917,340.39167 -9.525,28.575 11.64167,1.05833 8.466668,12.7 -15.874998,-5.29167 1.90282,8.43378 7.29646,1.49672 -12.42803,18.14759 L -221.88716,314.9605 -236.00833,284.3"
           style="fill:none;stroke:#000000;stroke-width:0.26458332px;stroke-linecap:butt;stroke-linejoin:miter;stroke-opacity:1" />
      </g>
    </clipPath>
    <clipPath
       clipPathUnits="userSpaceOnUse"
       id="clipPath1349">
      <path
         style="fill:none;stroke:#000000;stroke-width:0.26458332px;stroke-linecap:butt;stroke-linejoin:miter;stroke-opacity:1"
         d="m -212.725,294.88334 69.78926,28.30906 2.24506,-0.37417 -46.63432,-52.27656 -26.89152,23.09074 1.87088,2.05796"
         id="path1351"
         inkscape:connector-curvature="0" />
    </clipPath>
    <clipPath
       clipPathUnits="userSpaceOnUse"
       id="clipPath1357">
      <path
         style="fill:none;stroke:#000000;stroke-width:0.26458332px;stroke-linecap:butt;stroke-linejoin:miter;stroke-opacity:1"
         d="m -233.3625,301.23334 8.99584,-17.4625 6.87916,12.7 23.28334,-15.34584 3.70416,18.52084 18.52084,-1.05834 -8.99584,12.7 h 26.45834 l 14.2875,-6.35 v 5.29167 l 12.69999,-8.99583 6.35,-4.7625 -10.58333,24.87083 11.1125,2.64583 -3.175,7.40834 21.16667,8.46666 -38.1,-4.23333 L -228.6,323.9875 Z"
         id="path1359"
         inkscape:connector-curvature="0" />
    </clipPath>
    <clipPath
       clipPathUnits="userSpaceOnUse"
       id="clipPath1379">
      <path
         style="fill:none;stroke:#000000;stroke-width:0.26458332px;stroke-linecap:butt;stroke-linejoin:miter;stroke-opacity:1"
         d="m -110.06667,405.47917 15.345839,-8.99583 -6.349999,-1.05834 -7.9375,-13.22916 16.93333,2.64583 -6.35,-16.93333 -11.64167,-5.82084 10.583339,-2.64583 12.170831,-22.75417 -18.52083,3.70417 -41.80417,-10.05417 -11.1125,35.45417 z"
         id="path1381"
         inkscape:connector-curvature="0" />
    </clipPath>
    <clipPath
       clipPathUnits="userSpaceOnUse"
       id="clipPath1417">
      <path
         style="fill:none;stroke:#000000;stroke-width:0.26458332px;stroke-linecap:butt;stroke-linejoin:miter;stroke-opacity:1"
         d="m -215.37083,328.22084 -2.11667,19.05 6.35,-8.99584 z"
         id="path1419"
         inkscape:connector-curvature="0" />
    </clipPath>
    <clipPath
       clipPathUnits="userSpaceOnUse"
       id="clipPath1423">
      <path
         style="fill:none;stroke:#000000;stroke-width:0.26458332px;stroke-linecap:butt;stroke-linejoin:miter;stroke-opacity:1"
         d="m -159.80833,327.69167 4.23333,-1.5875 8.46667,7.9375 -4.7625,2.11667 -11.64167,-4.7625 z"
         id="path1425"
         inkscape:connector-curvature="0" />
    </clipPath>
    <clipPath
       clipPathUnits="userSpaceOnUse"
       id="clipPath1429">
      <path
         style="fill:none;stroke:#000000;stroke-width:0.26458332px;stroke-linecap:butt;stroke-linejoin:miter;stroke-opacity:1"
         d="m -151.16764,363.22939 -0.37418,4.86431 7.10937,12.34784 1.87089,-0.37417 0.37417,-10.47697 -7.10937,-3.36759 z"
         id="path1431"
         inkscape:connector-curvature="0" />
    </clipPath>
    <clipPath
       clipPathUnits="userSpaceOnUse"
       id="clipPath1452">
      <path
         style="fill:none;stroke:#000000;stroke-width:0.26458332px;stroke-linecap:butt;stroke-linejoin:miter;stroke-opacity:1"
         d="m -220.13333,493.32084 21.16667,-1.05834 29.46564,-17.27403 7.38869,-19.33729 13.51045,-0.007 15.53702,-17.75653 -6.21482,-21.75182 -8.801,-0.89532 0.28063,-53.56082 -72.99474,-8.7199 z"
         id="path1454"
         inkscape:connector-curvature="0" />
    </clipPath>
    <clipPath
       clipPathUnits="userSpaceOnUse"
       id="clipPath1470">
      <path
         style="fill:none;stroke:#000000;stroke-width:0.26458332px;stroke-linecap:butt;stroke-linejoin:miter;stroke-opacity:1"
         d="m -173.99246,358.73925 25.81824,27.12787 -0.18709,-11.5995 -3.18051,-6.17392 -5.09151,-9.63474 z"
         id="path1472"
         inkscape:connector-curvature="0" />
    </clipPath>
    <clipPath
       clipPathUnits="userSpaceOnUse"
       id="clipPath1015">
      <path
         style="fill:none;stroke:#000000;stroke-width:0.26458332px;stroke-linecap:butt;stroke-linejoin:miter;stroke-opacity:1"
         d="m -370.94583,268.425 h -22.225 l -17.4625,-5.29167 20.6375,-6.87917 -16.93334,-1.5875 20.6375,-7.40833 h -11.64166 l 10.05416,-14.2875 142.87501,1.05834 21.16667,10.05416 h -21.16667 l 16.93333,5.29167 -17.46249,5.82083 23.81249,0.52917 -30.95624,13.75834 z"
         id="path1017"
         inkscape:connector-curvature="0" />
    </clipPath>
    <clipPath
       clipPathUnits="userSpaceOnUse"
       id="clipPath1021">
      <path
         style="fill:none;stroke:#000000;stroke-width:0.26458332px;stroke-linecap:butt;stroke-linejoin:miter;stroke-opacity:1"
         d="m -378.88333,206.5125 7.9375,8.99583 v -13.22916 l -5.29167,-5.29167 4.23333,-11.1125 4.7625,2.11667 2.64584,-15.34583 9.525,-1.05834 0.52916,-8.46666 4.23334,-3.175 33.3375,5.82083 12.7,-3.70417 30.1625,-48.68333 -20.6375,22.225 17.99166,-89.95833 -30.69166,89.42916 -5.29167,-2.11666 -3.175,28.575 -5.82083,-26.45834 -4.23334,1.5875 3.175,21.69584 -11.64166,-11.64167 -4.7625,1.05833 12.17083,13.75834 -13.22917,-1.5875 -22.75416,-30.1625 -25.92917,-62.441667 17.4625,58.737497 -29.10417,-36.512497 30.1625,52.387497 8.46667,10.05417 -8.46667,3.70416 -1.05833,12.17084 -7.9375,3.70416 0.52917,15.875 -5.82084,7.9375 1.05834,7.9375 z"
         id="path1023"
         inkscape:connector-curvature="0" />
    </clipPath>
    <clipPath
       clipPathUnits="userSpaceOnUse"
       id="clipPath1044">
      <path
         style="fill:none;stroke:#000000;stroke-width:0.26458332px;stroke-linecap:butt;stroke-linejoin:miter;stroke-opacity:1"
         d="m -380.91253,205.70073 -5.79974,0.56126 0.4206,-14.03699 1.5875,-5.82083 1.05834,-20.6375 6.87916,-4.7625 1.5875,-10.58333 4.23334,-3.175 43.92083,-18.52084 5.82083,-3.70416 60.32501,22.225 4.7625,12.7 10.05417,8.46666 v 16.93333 l 3.175,4.23334 -2.64583,16.93333 -6.35,-0.52917 -8.91828,-17.49476 3.3676,0.37418 -9.72862,-14.59292 h 4.11596 l -13.47039,-11.97367 -6.361,-0.37418 -1.49673,-3.36759 -10.85114,2.61924 0.37417,-3.3676 -9.72859,4.49013 -12.39049,3.47051 -33.3375,-5.82083 -15.45,10.1145 z"
         id="path1046"
         inkscape:connector-curvature="0" />
    </clipPath>
    <clipPath
       clipPathUnits="userSpaceOnUse"
       id="clipPath1065">
      <path
         style="fill:none;stroke:#000000;stroke-width:0.26458332px;stroke-linecap:butt;stroke-linejoin:miter;stroke-opacity:1"
         d="M -400.57917,89.566673 -406.4,77.925007 -381.52917,106.5 l -10.05416,-51.858327 19.57916,35.983331 -10.05416,-36.512497 -4.23334,-23.283334 47.09584,116.945827 17.99166,-22.75416 15.31419,5.61056 28.07748,-107.21056 3.70417,89.95833 9.52501,-48.154163 -3.17501,53.710413 22.29801,-23.991178 -32.55345,46.585078 -72.29456,18.41652 z"
         id="path1067"
         inkscape:connector-curvature="0" />
    </clipPath>
    <clipPath
       clipPathUnits="userSpaceOnUse"
       id="clipPath1098">
      <path
         style="fill:none;stroke:#000000;stroke-width:0.26458332px;stroke-linecap:butt;stroke-linejoin:miter;stroke-opacity:1"
         d="m -280.8201,145.45818 -3.92885,5.61266 3.49687,-0.12084 6.08541,-2.64583 z"
         id="path1100"
         inkscape:connector-curvature="0" />
    </clipPath>
    <clipPath
       clipPathUnits="userSpaceOnUse"
       id="clipPath1104">
      <path
         style="fill:none;stroke:#000000;stroke-width:0.26458332px;stroke-linecap:butt;stroke-linejoin:miter;stroke-opacity:1"
         d="m -280.72292,161.79792 5.29167,0.26458 3.70417,0.26459 -0.26459,-1.5875 -2.91041,-0.52917 -1.5875,-2.64583 -3.70417,1.5875 z"
         id="path1106"
         inkscape:connector-curvature="0" />
    </clipPath>
    <clipPath
       clipPathUnits="userSpaceOnUse"
       id="clipPath1110">
      <path
         style="fill:none;stroke:#000000;stroke-width:0.26458332px;stroke-linecap:butt;stroke-linejoin:miter;stroke-opacity:1"
         d="m -260.34999,174.7625 7.67292,5.29167 0.26458,-2.91042 -6.87917,-3.43958 z"
         id="path1112"
         inkscape:connector-curvature="0" />
    </clipPath>
    <clipPath
       clipPathUnits="userSpaceOnUse"
       id="clipPath1116">
      <path
         style="fill:none;stroke:#000000;stroke-width:0.26458332px;stroke-linecap:butt;stroke-linejoin:miter;stroke-opacity:1"
         d="m -255.00185,199.71389 3.46114,6.26747 6.08039,0.46772 v -1.4967 z"
         id="path1118"
         inkscape:connector-curvature="0" />
    </clipPath>
    <clipPath
       clipPathUnits="userSpaceOnUse"
       id="clipPath903">
      <path
         style="fill:none;stroke:#000000;stroke-width:0.26458332px;stroke-linecap:butt;stroke-linejoin:miter;stroke-opacity:1"
         d="m -218.37295,364.63372 48.62555,43.76301 c 98.165887,51.09602 279.09075,32.32772 355.67703,-128.74937 L 10.002461,-48.084917 -72.517844,322.00615 Z"
         id="path905"
         inkscape:connector-curvature="0"
         sodipodi:nodetypes="cccccc" />
    </clipPath>
    <clipPath
       clipPathUnits="userSpaceOnUse"
       id="clipPath927">
      <path
         style="fill:none;stroke:#000000;stroke-width:0.26707456px;stroke-linecap:butt;stroke-linejoin:miter;stroke-opacity:1"
         d="m 46.085572,178.97405 1.898364,5.79478 8.26347,7.02058 0.223337,-11.36666 z"
         id="path929"
         inkscape:connector-curvature="0" />
    </clipPath>
    <clipPath
       clipPathUnits="userSpaceOnUse"
       id="clipPath1442">
      <path
         style="fill:none;stroke:#000000;stroke-width:0.26458332px;stroke-linecap:butt;stroke-linejoin:miter;stroke-opacity:1"
         d="m -273.18724,255.17097 -0.005,219.76344 21.52874,-0.31258 8.32236,-2.18802 44.2346,-26.26096 11.2478,-30.23732 21.49204,-0.0675 24.33974,-27.81674 -9.73592,-34.0756 -14.00607,-0.7248 c -7.95836,-53.92243 -45.24813,-94.4465 -107.41826,-98.07993 z"
         id="path1444"
         inkscape:connector-curvature="0"
         sodipodi:nodetypes="ccccccccccc" />
    </clipPath>
    <clipPath
       clipPathUnits="userSpaceOnUse"
       id="clipPath904">
      <path
         style="fill:none;stroke:#000000;stroke-width:0.26458332px;stroke-linecap:butt;stroke-linejoin:miter;stroke-opacity:1"
         d="m -332.89444,471.73049 1.25032,5.00124 -13.37633,-5.56382 0.6631,4.64153 -12.37742,-2.87332 -7.95692,-7.51488 3.53642,8.39899 2.21025,1.76818 -9.28307,-2.21025 -11.93538,-8.841 -25.19688,-19.00817 23.4287,23.42867 5.74664,5.74664 -20.77638,-4.86253 -13.2615,-17.23999 -9.28306,-20.33431 10.16717,31.82762 4.86254,7.95692 -18.56613,-14.58766 -8.841,-10.16718 -6.63075,-16.79791 -5.74667,-16.79792 -1.32614,-11.93536 3.09435,-13.70356 11.05125,-29.61741 13.70359,-31.82763 14.58764,-26.96509 17.23999,-22.98663 14.1456,-11.49331 22.54459,-12.37741 16.35588,-6.1887 20.77636,-5.74666 20.77638,-3.53641 38.90045,-0.8841 15.47177,2.21026 30.50148,4.4205 20.33433,7.95691 21.21842,13.70357 16.79792,14.14563 7.07281,9.7251 11.05126,16.79792 15.91382,30.94353 6.63076,13.70356 2.21025,11.05128 2.21026,13.26152 2.21025,18.12407 v 16.35588 l -5.30461,14.58764 -10.16716,20.77638 -11.49331,16.79792 -11.49332,7.95692 -8.84101,6.18871 -10.60921,1.76818 2.65231,-10.60921 -0.44206,-11.05124 -7.0728,11.49331 -7.51486,3.97846 -6.18871,3.53639 4.86256,-13.26152 -10.60922,8.84103 -7.95691,2.65228 2.65231,-5.74664 -12.37742,9.28307 0.8841,-3.09436 -5.3046,3.53639 -0.88411,-4.4205 z"
         id="path906"
         inkscape:connector-curvature="0" />
    </clipPath>
    <clipPath
       clipPathUnits="userSpaceOnUse"
       id="clipPath912">
      <path
         style="fill:none;stroke:#000000;stroke-width:0.26458332px;stroke-linecap:butt;stroke-linejoin:miter;stroke-opacity:1"
         d="m -388.22053,457.0394 -18.12946,-35.63379 -2.50063,-11.87792 -1.25032,-20.00493 2.50063,-18.12946 5.00123,-27.50675 -3.12578,45.63621 1.87547,17.50433 10.62762,-56.88902 5.62637,-12.50307 8.12702,-20.00493 6.87668,-12.50307 -6.87668,20.63009 -8.12702,23.75583 -2.5006,22.50553 -1.25032,0.62516 15.62886,0.62516 H -154.413 l -3.75092,-79.39453 19.37977,72.51785 4.37607,-38.75955 7.50185,81.26999 10.62761,-45.01107 -8.127,64.39085 21.88039,-51.88778 -6.87669,-33.75829 -6.8767,-16.87915 -7.50184,-11.87794 -19.37977,-28.75709 -32.508,-35.0086 -26.88162,-20.00493 -9.3773,-5.62638 -27.50678,-5.62638 -31.25768,-1.25031 -20.63009,0.62515 -25.00614,3.12577 -15.0037,5.62639 -11.87792,4.37607 -18.12946,10.00246 -12.5031,11.25277 -16.87914,16.25401 -11.87792,16.25398 -10.62762,15.0037 -6.87668,16.25402 -8.75218,16.87915 -6.25152,19.37977 -6.87671,16.25399 -1.25028,10.62763 -1.25032,13.12823 v 6.87668 l 8.75215,29.38224 0.62516,-39.38471 10.62762,37.50924 -4.3761,-41.26016 1.87547,-15.00367 1.25032,-7.50187 -0.62516,28.75709 6.25155,17.5043 10.6276,31.25769 z"
         id="path914"
         inkscape:connector-curvature="0" />
    </clipPath>
    <clipPath
       clipPathUnits="userSpaceOnUse"
       id="clipPath943">
      <path
         style="fill:none;stroke:#000000;stroke-width:0.26458332px;stroke-linecap:butt;stroke-linejoin:miter;stroke-opacity:1"
         d="m -302.57446,281.9963 c 0,0 -13.75338,13.75339 -15.62886,16.25402 -1.87544,2.5006 -18.54009,22.87172 -18.54009,22.87172 l -11.77065,22.91617 c -16.45322,30.33533 -16.68957,51.47096 -21.57701,74.86679 l -1.87547,34.38345 3.12576,38.1344 8.12699,23.75585 10.62763,11.25276 -16.87915,-10.6276 0.62516,3.12576 6.87668,13.12823 14.37854,7.50184 h 5.00123 l -10.62762,4.37607 -25.00614,-1.87544 -10.62763,-10.00247 -8.75215,-14.37852 -5.00123,-22.50556 -3.12576,-38.44695 4.37607,-52.04868 10.62763,-54.54007 c 14.49202,-58.17436 48.9467,-79.75052 76.26876,-114.40315 z"
         id="path945"
         inkscape:connector-curvature="0"
         sodipodi:nodetypes="cscccccccccccccccccccccc" />
    </clipPath>
    <clipPath
       clipPathUnits="userSpaceOnUse"
       id="clipPath965">
      <path
         style="fill:none;stroke:#000000;stroke-width:0.26458332px;stroke-linecap:butt;stroke-linejoin:miter;stroke-opacity:1"
         d="m -302.57446,281.9963 6.40059,7.04678 16.35588,10.60921 12.37742,5.74667 3.53641,0.44204 -11.93537,-19.89227 -1.76821,-10.60921 7.51486,12.37742 5.3046,5.74664 12.37743,8.39896 13.70357,9.28307 -4.86256,-10.60921 -2.6523,-20.33432 10.16716,20.77638 11.05126,11.05125 5.74666,2.21025 -12.37741,-23.87071 v -5.30463 c 0,0 7.9569,14.58767 9.28306,16.35588 1.32615,1.76821 21.66047,16.35588 21.66047,16.35588 l 5.30461,1.32615 10.60921,5.3046 1.32615,13.70357 4.42051,22.10252 3.09435,32.2697 -0.8841,25.63892 -0.57845,17.3365 -5.61026,34.38343 -4.86255,15.91381 -10.16717,21.21842 -7.51486,11.05127 15.91382,-10.60921 7.51486,-6.63077 -10.16716,14.14563 -19.00817,10.60921 -12.37742,5.3046 14.58767,3.09436 13.70357,-0.44207 11.49331,-3.53639 11.49332,-7.07282 9.72511,-13.2615 9.28306,-17.68202 5.3046,-16.79792 5.30461,-31.82766 1.32615,-25.63891 0.15337,-44.18129 -15.07399,-56.2569 -20.88547,-41.01799 -106.09212,-27.40713 z"
         id="path967"
         inkscape:connector-curvature="0" />
    </clipPath>
    <clipPath
       clipPathUnits="userSpaceOnUse"
       id="clipPath994">
      <path
         style="fill:none;stroke:#000000;stroke-width:0.26458332px;stroke-linecap:butt;stroke-linejoin:miter;stroke-opacity:1"
         d="m -386.97024,265.74231 35.00863,-31.88285 6.87668,-3.75093 8.127,-4.37607 23.13069,-10.00246 8.127,-2.50062 21.25524,-4.37608 7.50184,-0.62515 11.87791,-0.62516 17.50433,0.62516 14.37854,3.12577 11.25276,3.12577 10.00247,5.00123 15.00369,9.37731 11.87792,9.3773 10.00246,8.127 8.75216,8.75216 5.62638,7.50184 5.00123,5.00123 6.87669,10.00247 1.25031,2.50063 -248.81124,-1.87548 z"
         id="path996"
         inkscape:connector-curvature="0" />
    </clipPath>
    <clipPath
       clipPathUnits="userSpaceOnUse"
       id="clipPath1050">
      <path
         style="fill:none;stroke:#000000;stroke-width:0.26458332px;stroke-linecap:butt;stroke-linejoin:miter;stroke-opacity:1"
         d="m -264.78828,305.841 -18.5661,-18.12406 -1.76821,-3.09436 -2.65229,-5.3046 -2.65232,-8.39896 -0.44204,-7.95691 0.88408,-14.14562 1.32617,-7.07281 2.21025,-4.86256 5.30461,20.77638 2.65229,7.95691 5.3046,11.93536 3.53642,5.3046 8.84101,9.72513 3.5364,3.09436 10.10321,9.68759 -9.29917,-5.86084 -4.61051,-2.6569 -4.14165,-3.75091 -3.90721,-4.68866 -4.45421,-6.56413 -1.64103,-2.5006 -0.93773,0.31258 0.39071,1.64102 1.17216,4.21979 2.65692,6.17339 3.98536,7.34555 4.14164,7.11113 z"
         id="path1052"
         inkscape:connector-curvature="0" />
    </clipPath>
    <clipPath
       clipPathUnits="userSpaceOnUse"
       id="clipPath1056">
      <path
         style="fill:none;stroke:#000000;stroke-width:0.26458332px;stroke-linecap:butt;stroke-linejoin:miter;stroke-opacity:1"
         d="m -370.87252,435.0027 1.40658,-20.00491 2.18805,-13.28451 5.4701,-25.78762 4.68866,-13.28452 5.78265,-13.59709 17.50433,-31.41398 10.94018,-14.37854 20.19787,-21.22599 -1.82346,-1.87873 -3.68329,-5.33976 -6.8767,7.50183 -14.06594,16.87915 -5.93897,8.4396 -10.31505,15.31625 -8.75215,15.94144 -6.25155,14.06596 -4.0635,14.06594 -3.75091,19.0672 -2.50061,25.9439 z"
         id="path1058"
         inkscape:connector-curvature="0" />
    </clipPath>
    <clipPath
       clipPathUnits="userSpaceOnUse"
       id="clipPath1092">
      <path
         style="fill:none;stroke:#000000;stroke-width:0.26458332px;stroke-linecap:butt;stroke-linejoin:miter;stroke-opacity:1"
         d="m -177.26226,435.36182 2.6523,-19.00817 2.87333,-23.42869 0.44205,-11.49332 -0.66307,-14.36664 -1.54718,-13.04049 -5.08358,-24.75481 -3.09436,-11.49332 -1.54717,-3.09435 -2.65231,-4.86257 6.63077,51.94091 c 0.74261,8.33446 1.5713,17.2693 1.7682,31.60663 1.10597,3.60711 0.42259,12.92439 0.44204,20.33434 z"
         id="path1094"
         inkscape:connector-curvature="0"
         sodipodi:nodetypes="cccccccccccccc" />
    </clipPath>
    <clipPath
       clipPathUnits="userSpaceOnUse"
       id="clipPath1115">
      <path
         style="fill:none;stroke:#000000;stroke-width:0.26458332px;stroke-linecap:butt;stroke-linejoin:miter;stroke-opacity:1"
         d="m -324.51765,-184.77712 6.52026,-15.58228 8.06741,-12.48793 8.61999,-9.50408 15.8033,-9.28307 -5.63615,0.77359 -8.17793,3.53641 -7.95689,4.30999 -6.40975,3.42589 -0.8841,0.22103 2.65231,-5.74666 5.52561,-6.07819 5.0836,-4.53102 12.26691,-6.63076 8.06741,-3.31538 -11.16177,0.77359 -10.27769,2.09974 -8.61996,3.75743 9.97159,-6.33407 10.78391,-2.50061 12.97194,-1.09402 9.37731,-0.46887 9.38874,-0.32216 -28.29123,11.49332 -12.81946,7.07281 -4.1995,2.87332 -1.54717,1.54718 13.70356,-5.74666 8.84103,-0.44205 h 3.97843 l 4.19949,0.22103 -4.4205,1.98923 -4.64153,2.87332 -6.63077,4.19948 -5.30461,4.86256 -5.3046,5.52563 -8.841,11.71434 -1.32615,2.21025 23.42867,-11.49331 14.58767,-8.39896 12.81947,-9.28306 4.4205,-3.97846 -14.58768,15.91382 -8.841,6.18871 -8.39896,5.74666 -7.51485,5.3046 -7.07282,4.42051 -7.51485,4.4205 11.93535,-0.8841 4.42053,-2.21025 -4.86257,3.09435 -8.84102,3.97846 -3.5364,1.7682 -3.09435,0.8841 z"
         id="path1117"
         inkscape:connector-curvature="0" />
    </clipPath>
    <clipPath
       clipPathUnits="userSpaceOnUse"
       id="clipPath1121">
      <path
         style="fill:none;stroke:#000000;stroke-width:0.26458332px;stroke-linecap:butt;stroke-linejoin:miter;stroke-opacity:1"
         d="m -274.80704,-308.04456 24.22472,-15.15999 2.03175,-0.78145 -3.75093,2.50063 -19.37976,13.28452 -9.68989,5.78268 z"
         id="path1123"
         inkscape:connector-curvature="0" />
    </clipPath>
    <clipPath
       clipPathUnits="userSpaceOnUse"
       id="clipPath1150">
      <path
         style="fill:none;stroke:#000000;stroke-width:0.26458332px;stroke-linecap:butt;stroke-linejoin:miter;stroke-opacity:1"
         d="m -383.69986,530.40267 108.74444,96.36702 c 61.76764,-3.82606 188.540657,-26.03119 248.874439,-190.52376 L -174.16791,240.41753 -411.10699,457.90638 Z"
         id="path1152"
         inkscape:connector-curvature="0"
         sodipodi:nodetypes="cccccc" />
    </clipPath>
  </defs>
  <sodipodi:namedview
     id="base"
     pagecolor="#ffffff"
     bordercolor="#666666"
     borderopacity="1.0"
     inkscape:pageopacity="0.0"
     inkscape:pageshadow="2"
     inkscape:zoom="0.21161457"
     inkscape:cx="-721.74469"
     inkscape:cy="-3.2835619"
     inkscape:document-units="mm"
     inkscape:current-layer="layer1"
     showgrid="false"
     inkscape:window-width="1920"
     inkscape:window-height="1048"
     inkscape:window-x="0"
     inkscape:window-y="0"
     inkscape:window-maximized="1"
     inkscape:snap-global="false"
     inkscape:pagecheckerboard="true"
     showguides="false"
     inkscape:measure-start="0,0"
     inkscape:measure-end="0,0" />
  <metadata
     id="metadata5">
    <rdf:RDF>
      <cc:Work
         rdf:about="">
        <dc:format>image/svg+xml</dc:format>
        <dc:type
           rdf:resource="http://purl.org/dc/dcmitype/StillImage" />
        <dc:title />
      </cc:Work>
    </rdf:RDF>
  </metadata>
  <g
     inkscape:label="Layer 1"
     inkscape:groupmode="layer"
     id="layer1">
    <g
       id="g1176"
       inkscape:export-xdpi="96"
       inkscape:export-ydpi="96">
      <circle
         r="266.31555"
         cy="360.69778"
         cx="-282.96365"
         id="path815"
         style="opacity:1;fill:#ec407a;fill-opacity:1;stroke:#000000;stroke-width:0;stroke-linejoin:round;stroke-miterlimit:4;stroke-dasharray:none;stroke-opacity:1" />
      <rect
         clip-path="url(#clipPath1150)"
         y="127.25259"
         x="-564.05646"
         height="514.54681"
         width="589.69537"
         id="rect1146"
         style="opacity:0.457;fill:#000000;fill-opacity:1;stroke:#000000;stroke-width:0;stroke-linejoin:round;stroke-miterlimit:4;stroke-dasharray:none;stroke-opacity:1" />
      <g
         transform="translate(-9.7764286,-15.071591)"
         id="g1144">
        <g
           id="g975">
          <rect
             clip-path="url(#clipPath904)"
             y="160.58693"
             x="-466.30435"
             height="315.62408"
             width="393.42499"
             id="rect900"
             style="opacity:1;fill:#452213;fill-opacity:1;stroke:#000000;stroke-width:0;stroke-linejoin:round;stroke-miterlimit:4;stroke-dasharray:none;stroke-opacity:1" />
          <rect
             y="370.40411"
             x="-141.45616"
             height="65.841751"
             width="10.455844"
             id="rect969"
             style="opacity:1;fill:#452213;fill-opacity:1;stroke:#000000;stroke-width:0;stroke-linejoin:round;stroke-miterlimit:4;stroke-dasharray:none;stroke-opacity:1" />
        </g>
        <rect
           style="opacity:1;fill:#874827;fill-opacity:1;stroke:#000000;stroke-width:0;stroke-linejoin:round;stroke-miterlimit:4;stroke-dasharray:none;stroke-opacity:1"
           id="rect908"
           width="373.09067"
           height="270.53491"
           x="-461.50076"
           y="187.37148"
           clip-path="url(#clipPath912)" />
        <g
           id="g898"
           transform="translate(10.460072,19.522798)">
          <g
             transform="matrix(1.5665637,0,0,1.5665637,75.638903,49.589807)"
             id="g863">
            <circle
               style="opacity:1;fill:#ffdebd;fill-opacity:1;stroke:#000000;stroke-width:0;stroke-linejoin:round;stroke-miterlimit:4;stroke-dasharray:none;stroke-opacity:1"
               id="path836"
               cx="-251.73212"
               cy="300.77975"
               r="70.938194"
               clip-path="url(#clipPath827)"
               transform="translate(27.214286,-98.651786)" />
            <rect
               style="opacity:1;fill:#ffdebd;fill-opacity:1;stroke:#000000;stroke-width:0;stroke-linejoin:round;stroke-miterlimit:4;stroke-dasharray:none;stroke-opacity:1"
               id="rect831"
               width="96.005951"
               height="85.800591"
               x="-420.30951"
               y="244.83928"
               clip-path="url(#clipPath835)"
               transform="translate(73.896383,-70.772744)" />
            <rect
               style="opacity:1;fill:#ffdebd;fill-opacity:1;stroke:#000000;stroke-width:0;stroke-linejoin:round;stroke-miterlimit:4;stroke-dasharray:none;stroke-opacity:1"
               id="rect831-0"
               width="96.005951"
               height="85.800591"
               x="-420.30951"
               y="244.83928"
               clip-path="url(#clipPath835-0)"
               transform="matrix(-1,0,0,1,-524.14436,-70.726418)" />
          </g>
          <rect
             clip-path="url(#clipPath1442)"
             y="245.73738"
             x="-273.19223"
             height="245.68547"
             width="156.9136"
             id="rect968"
             style="opacity:0.76799999;fill:#e6c7a8;fill-opacity:0.55294118;stroke:#000000;stroke-width:0;stroke-linejoin:round;stroke-miterlimit:4;stroke-dasharray:none;stroke-opacity:1" />
        </g>
        <g
           id="g1005">
          <rect
             clip-path="url(#clipPath943)"
             y="213.54196"
             x="-412.60156"
             height="333.207"
             width="272.56705"
             id="rect920"
             style="opacity:1;fill:#874827;fill-opacity:1;stroke:#000000;stroke-width:0;stroke-linejoin:round;stroke-miterlimit:4;stroke-dasharray:none;stroke-opacity:1" />
          <rect
             clip-path="url(#clipPath965)"
             y="243.6395"
             x="-310.77322"
             height="333.20703"
             width="272.56705"
             id="rect920-1"
             style="opacity:1;fill:#874827;fill-opacity:1;stroke:#000000;stroke-width:0;stroke-linejoin:round;stroke-miterlimit:4;stroke-dasharray:none;stroke-opacity:1" />
          <rect
             clip-path="url(#clipPath994)"
             y="173.8447"
             x="-406.34998"
             height="108.77677"
             width="278.19345"
             id="rect977"
             style="opacity:1;fill:#864726;fill-opacity:1;stroke:#000000;stroke-width:0;stroke-linejoin:round;stroke-miterlimit:4;stroke-dasharray:none;stroke-opacity:1" />
        </g>
        <rect
           style="opacity:1;fill:#452213;fill-opacity:1;stroke:#000000;stroke-width:0;stroke-linejoin:round;stroke-miterlimit:4;stroke-dasharray:none;stroke-opacity:1"
           id="rect1007"
           width="50.012306"
           height="80.644844"
           x="-296.94809"
           y="233.85945"
           clip-path="url(#clipPath1050)" />
        <rect
           style="opacity:0.719;fill:#452213;fill-opacity:1;stroke:#000000;stroke-width:0;stroke-linejoin:round;stroke-miterlimit:4;stroke-dasharray:none;stroke-opacity:1"
           id="rect1007-2"
           width="73.76815"
           height="164.41547"
           x="-372.14966"
           y="270.61407"
           clip-path="url(#clipPath1056)" />
        <rect
           style="opacity:0.719;fill:#452213;fill-opacity:1;stroke:#000000;stroke-width:0;stroke-linejoin:round;stroke-miterlimit:4;stroke-dasharray:none;stroke-opacity:1"
           id="rect1007-8"
           width="53.138077"
           height="148.16147"
           x="-191.29707"
           y="289.81073"
           clip-path="url(#clipPath1092)" />
        <rect
           style="opacity:1;fill:#452213;fill-opacity:1;stroke:#000000;stroke-width:0;stroke-linejoin:round;stroke-miterlimit:4;stroke-dasharray:none;stroke-opacity:1"
           id="rect1007-8-9"
           width="71.892693"
           height="80.644844"
           x="-324.50677"
           y="-262.8772"
           transform="rotate(-90)"
           clip-path="url(#clipPath1115)" />
        <rect
           style="opacity:1;fill:#452213;fill-opacity:1;stroke:#000000;stroke-width:0;stroke-linejoin:round;stroke-miterlimit:4;stroke-dasharray:none;stroke-opacity:1"
           id="rect1007-8-9-3"
           width="50.012306"
           height="80.644844"
           x="-296.3609"
           y="-363.17548"
           transform="rotate(-90)"
           clip-path="url(#clipPath1121)" />
      </g>
    </g>
  </g>
</svg>
